<svg xmlns="http://www.w3.org/2000/svg" width="580" height="580" version="1.0"><metadata id="metadata10"/><path id="path3752" fill="none" stroke="#87b987" stroke-linecap="round" stroke-linejoin="round" stroke-opacity=".733" stroke-width="12" d="m 91.846983,454.74639 376.797227,0"/><g id="g3779" stroke="#87b987" stroke-opacity=".733" transform="matrix(0.74835908,0,0,0.74835908,47.4084,40.634415)"><path id="path3781" fill="none" stroke-linecap="round" stroke-linejoin="round" stroke-opacity=".733" stroke-width="15.573" d="m 219.43574,376.07932 0.44048,-111.44093"/><path id="path3783" fill="none" stroke-linecap="round" stroke-linejoin="round" stroke-opacity=".733" stroke-width="15.573" d="m 285.43186,303.99208 -35.23824,72.23839"/><path id="path3785" fill="none" stroke-linecap="round" stroke-linejoin="round" stroke-opacity=".733" stroke-width="15.573" d="m 329.55523,332.03152 -43.16684,44.0478"/><path id="path3787" fill="none" stroke-linecap="round" stroke-linejoin="round" stroke-opacity=".733" stroke-width="15.573" d="m 159.34959,300.90874 30.39298,75.32173"/><path id="path3789" fill="none" stroke-linecap="round" stroke-linejoin="round" stroke-opacity=".733" stroke-width="15.573" d="m 110.82144,333.35295 42.72636,42.72637"/></g><g id="g3791" stroke="#87b987" stroke-opacity=".733" transform="matrix(0.74835908,0,0,0.74835908,247.4084,-55.36559)"><path id="path3793" fill="none" stroke-linecap="round" stroke-linejoin="round" stroke-opacity=".733" stroke-width="15.573" d="m 219.43574,376.07932 0.44048,-111.44093"/><path id="path3795" fill="none" stroke-linecap="round" stroke-linejoin="round" stroke-opacity=".733" stroke-width="15.573" d="m 285.43186,303.99208 -35.23824,72.23839"/><path id="path3797" fill="none" stroke-linecap="round" stroke-linejoin="round" stroke-opacity=".733" stroke-width="15.573" d="m 329.55523,332.03152 -43.16684,44.0478"/><path id="path3799" fill="none" stroke-linecap="round" stroke-linejoin="round" stroke-opacity=".733" stroke-width="15.573" d="m 159.34959,300.90874 30.39298,75.32173"/><path id="path3801" fill="none" stroke-linecap="round" stroke-linejoin="round" stroke-opacity=".733" stroke-width="15.573" d="m 110.82144,333.35295 42.72636,42.72637"/></g><path id="path3803" fill="none" stroke="#87b987" stroke-linecap="round" stroke-linejoin="round" stroke-opacity=".733" stroke-width="12" d="m 346.41953,394.74639 169.65214,0"/></svg>