<svg xmlns="http://www.w3.org/2000/svg" width="580" height="580" version="1.0"><metadata id="metadata2975"/><path id="path4144" fill="none" stroke="#fff" stroke-linejoin="round" stroke-width="64" d="M 32,290 C 32,432 148,548 290,548 432,548 548,432 548,290 548,148 432,32 290,32 148,32 32,148 32,290 Z" color="#000" color-interpolation="sRGB" color-interpolation-filters="linearRGB" color-rendering="auto" filter-blend-mode="normal" filter-gaussianBlur-deviation="0" image-rendering="auto" isolation="auto" mix-blend-mode="normal" opacity=".8" shape-rendering="auto" solid-color="#000000" solid-opacity="1" white-space="normal"/><path id="path4183" fill="#ac39ac" d="M 32,290 C 32,432 148,548 290,548 432,548 548,432 548,290 548,148 432,32 290,32 148,32 32,148 32,290 Z" color="#000" color-interpolation="sRGB" color-interpolation-filters="linearRGB" color-rendering="auto" image-rendering="auto" isolation="auto" mix-blend-mode="normal" shape-rendering="auto" solid-color="#000000" solid-opacity="1" white-space="normal"/><path id="circle4177" fill="#fff" d="M 525,290 C 525,420 420,525 290,525 160,525 55,420 55,290 55,160 160,55 290,55 420,55 525,160 525,290 Z" color="#000" color-interpolation="sRGB" color-interpolation-filters="linearRGB" color-rendering="auto" image-rendering="auto" isolation="auto" mix-blend-mode="normal" opacity=".8" shape-rendering="auto" solid-color="#000000" solid-opacity="1" white-space="normal"/><path id="path4145" fill="#ac39ac" d="M 122 163 L 122 417 L 457 417 L 457 163 L 122 163 z M 163 187 L 417 187.19922 L 310 293 C 304.7 298.3 298 301 290 301 C 281.6 301 274.59961 298.19961 269.09961 292.59961 L 163 187 z M 146 203 L 233 290 L 146 377 L 146 203 z M 434 203 L 434 377 L 347 290 L 434 203 z M 249 307 C 260.29741 318.49378 276.25955 325.22887 289.30078 325.40039 C 307.93883 323.32024 317.64861 318.35139 329 307 L 416 394 L 161 394 L 249 307 z"/></svg>