<svg xmlns="http://www.w3.org/2000/svg" width="580" height="580" version="1.0"><metadata id="metadata2975"/><path id="path4141" fill="none" stroke="#fff" stroke-linejoin="round" stroke-width="64" d="m 484,435 0,-292 -385,0 0,292 z" color="#000" color-interpolation="sRGB" color-interpolation-filters="linearRGB" color-rendering="auto" filter-blend-mode="normal" filter-gaussianBlur-deviation="0" image-rendering="auto" isolation="auto" mix-blend-mode="normal" opacity=".8" shape-rendering="auto" solid-color="#000000" solid-opacity="1"/><path id="flowRoot3192" fill="#734a08" d="m 484,435 0,-292 -385,0 0,292 z"/><path id="path4156" fill="#fff" d="M 226,289 126,389 126,189 Z" opacity=".9"/><path id="path4154" fill="#fff" d="m 314,292 c -6.1,6.1 -13.8,9.2 -23,9.2 -9.6,0 -17.7,-3.2 -24,-9.6 l -122,-122 292,0.2 z" opacity=".9"/><path id="path4152" fill="#fff" d="m 356,289 100,-100 0,200 z" opacity=".9"/><path id="path4150" fill="#fff" d="m 244,308 4.3,4.3 c 11.6,11.3 25.6,16.9 42,16.9 16.4,0 30,-5.6 41.5,-16.9 l 4.3,-4.3 100,100 -292.55,0 z" opacity=".9"/></svg>