<svg xmlns="http://www.w3.org/2000/svg" width="580" height="580" version="1.0"><metadata id="metadata2975"/><path id="path4146" fill="none" stroke="#fff" stroke-linejoin="round" stroke-width="64" d="M 188,205 C 51,396 105,494 127,509 l 89,-128 c -18,-12 -8,-34 16,-77 16,-28 38,-61 64,-91 18,-21 38,-41 56,-28 L 443,54.9 C 437,51 424,47 406,48 360,47.7 281,75 188,205 Z" color="#000" color-interpolation="sRGB" color-interpolation-filters="linearRGB" color-rendering="auto" filter-blend-mode="normal" filter-gaussianBlur-deviation="0" image-rendering="auto" isolation="auto" mix-blend-mode="normal" opacity=".8" shape-rendering="auto" solid-color="#000000" solid-opacity="1"/><path id="path4148" fill="none" stroke="#fff" stroke-linejoin="round" stroke-width="64" d="m 362,192 40,28 c 4,3 15,1 17.5,-3 L 493,111 c 6,-8 4,-19 -4,-24 L 453,61.8 Z" color="#000" color-interpolation="sRGB" color-interpolation-filters="linearRGB" color-rendering="auto" filter-blend-mode="normal" filter-gaussianBlur-deviation="0" image-rendering="auto" isolation="auto" mix-blend-mode="normal" opacity=".8" shape-rendering="auto" solid-color="#000000" solid-opacity="1"/><path id="path4150" fill="none" stroke="#fff" stroke-linejoin="round" stroke-width="64" d="m 137,516 40,28 c 4,3 15,0 17.5,-4 L 266,437 c 6,-8 3,-18 -4,-24 l -36,-25 z" color="#000" color-interpolation="sRGB" color-interpolation-filters="linearRGB" color-rendering="auto" filter-blend-mode="normal" filter-gaussianBlur-deviation="0" image-rendering="auto" isolation="auto" mix-blend-mode="normal" opacity=".8" shape-rendering="auto" solid-color="#000000" solid-opacity="1"/><path id="path4152" fill="none" stroke="#fff" stroke-linejoin="round" stroke-width="64" d="M 188,205 C 51,396 105,494 127,509 l 89,-128 c -18,-12 -8,-34 16,-77 16,-28 38,-61 64,-91 18,-21 38,-41 56,-28 L 443,54.9 C 437,51 424,47 406,48 360,47.7 281,75 188,205 Z" color="#000" color-interpolation="sRGB" color-interpolation-filters="linearRGB" color-rendering="auto" filter-blend-mode="normal" filter-gaussianBlur-deviation="0" image-rendering="auto" isolation="auto" mix-blend-mode="normal" opacity=".8" shape-rendering="auto" solid-color="#000000" solid-opacity="1"/><path id="path4154" fill="none" stroke="#fff" stroke-linejoin="round" stroke-width="64" d="m 362,192 40,28 c 4,3 15,1 17.5,-3 L 493,111 c 6,-8 4,-19 -4,-24 L 453,61.8 Z" color="#000" color-interpolation="sRGB" color-interpolation-filters="linearRGB" color-rendering="auto" filter-blend-mode="normal" filter-gaussianBlur-deviation="0" image-rendering="auto" isolation="auto" mix-blend-mode="normal" opacity=".8" shape-rendering="auto" solid-color="#000000" solid-opacity="1"/><path id="path4156" fill="none" stroke="#fff" stroke-linejoin="round" stroke-width="64" d="m 137,516 40,28 c 4,3 15,0 17.5,-4 L 266,437 c 6,-8 3,-18 -4,-24 l -36,-25 z" color="#000" color-interpolation="sRGB" color-interpolation-filters="linearRGB" color-rendering="auto" filter-blend-mode="normal" filter-gaussianBlur-deviation="0" image-rendering="auto" isolation="auto" mix-blend-mode="normal" opacity=".8" shape-rendering="auto" solid-color="#000000" solid-opacity="1"/><path id="path4138" fill="#734a08" d="M 188,205 C 51,396 105,494 127,509 l 89,-128 c -18,-12 -8,-34 16,-77 16,-28 38,-61 64,-91 18,-21 38,-41 56,-28 L 443,54.9 C 437,51 424,47 406,48 360,47.7 281,75 188,205 Z"/><path id="path4136" fill="#734a08" d="m 362,192 40,28 c 4,3 15,1 17.5,-3 L 493,111 c 6,-8 4,-19 -4,-24 L 453,61.8 Z"/><path id="path1333" fill="#734a08" d="m 137,516 40,28 c 4,3 15,0 17.5,-4 L 266,437 c 6,-8 3,-18 -4,-24 l -36,-25 z"/><path id="path4140" fill="#734a08" d="M 188,205 C 51,396 105,494 127,509 l 89,-128 c -18,-12 -8,-34 16,-77 16,-28 38,-61 64,-91 18,-21 38,-41 56,-28 L 443,54.9 C 437,51 424,47 406,48 360,47.7 281,75 188,205 Z"/><path id="path4142" fill="#734a08" d="m 362,192 40,28 c 4,3 15,1 17.5,-3 L 493,111 c 6,-8 4,-19 -4,-24 L 453,61.8 Z"/><path id="path4144" fill="#734a08" d="m 137,516 40,28 c 4,3 15,0 17.5,-4 L 266,437 c 6,-8 3,-18 -4,-24 l -36,-25 z"/></svg>