<svg xmlns="http://www.w3.org/2000/svg" width="580" height="580" version="1.0"><metadata id="metadata2975"/><path id="path4137" fill="none" stroke="#fff" stroke-linejoin="round" stroke-width="64" d="m 56,287 c 75,86 152,171 228,257 13.7,4.7 7.2,-16 8.5,-24.3 L 292,444 c -9,-14.6 -22.7,-26.4 -33.5,-39.9 0,0 -190,-218 -193,-219 -11.3,-4.9 -8.9,20.3 -9.25,24.85 C 55.9,235 55,261 56,287 Z M 70,157 c -4.9,5 9,15.9 15,23 l 214,243 c 9.5,3.4 18,-7.5 26.9,-10.8 L 524,298 c 6.6,-8.9 -6.2,-16.7 -12.4,-23.4 L 302,32.7 C 300.8,31.5 300,30.6 298,31 219,75.8 143,114 70,157 Z" color="#000" color-interpolation="sRGB" color-interpolation-filters="linearRGB" color-rendering="auto" filter-blend-mode="normal" filter-gaussianBlur-deviation="0" image-rendering="auto" isolation="auto" mix-blend-mode="normal" opacity=".8" shape-rendering="auto" solid-color="#000000" solid-opacity="1" white-space="normal"/><path id="path4139" fill="none" stroke="#fff" stroke-linejoin="round" stroke-width="64" d="m 309,522 c -5.8,4.6 -4.7,17 3.8,18 76.77129,-43.39779 150.25131,-85.81648 212,-122 6.1,-4.8 4.8,-18.7 -4.6,-18.4 C 456.71159,435.65718 370.7288,485.36996 309,522 Z m 0.4,-40.3 c -5.8,4.6 -4.7,17 3.8,18 74.60979,-42.67729 150.25131,-85.81648 212,-122 6.1,-4.8 4.8,-18.7 -5.05,-17.85 -72.73783,41.31178 -148.55451,85.78517 -210.75,121.85 z m 0,-40 c -5.8,4.6 -4.7,17 3.8,18 74.60979,-41.2363 150.25131,-85.81648 212,-122 6.1,-4.8 4.8,-18.7 -4.8,-18 -6.4,2 -149,86 -211,122 z" color="#000" color-interpolation="sRGB" color-interpolation-filters="linearRGB" color-rendering="auto" filter-blend-mode="normal" filter-gaussianBlur-deviation="0" image-rendering="auto" isolation="auto" mix-blend-mode="normal" opacity=".8" shape-rendering="auto" solid-color="#000000" solid-opacity="1" white-space="normal"/><path id="path3474" fill="#ac39ac" fill-rule="evenodd" d="m 56,287 c 75,86 152,171 228,257 13.7,4.7 7.2,-16 8.5,-24.3 L 292,444 c -9,-14.6 -22.7,-26.4 -33.5,-39.9 0,0 -190,-218 -193,-219 -11.3,-4.9 -8.9,20.3 -9.25,24.85 C 55.9,235 55,261 56,287 Z M 70,157 c -4.9,5 9,15.9 15,23 l 214,243 c 9.5,3.4 18,-7.5 26.9,-10.8 L 524,298 c 6.6,-8.9 -6.2,-16.7 -12.4,-23.4 L 302,32.7 C 300.8,31.5 300,30.6 298,31 219,75.8 143,114 70,157 Z" color="#000" color-interpolation="sRGB" color-interpolation-filters="linearRGB" color-rendering="auto" image-rendering="auto" isolation="auto" mix-blend-mode="normal" shape-rendering="auto" solid-color="#000000" solid-opacity="1" white-space="normal"/><path id="path3507" fill="#ac39ac" fill-rule="evenodd" d="m 309,522 c -5.8,4.6 -4.7,17 3.8,18 76.77129,-43.39779 150.25131,-85.81648 212,-122 6.1,-4.8 4.8,-18.7 -4.6,-18.4 C 456.71159,435.65718 370.7288,485.36996 309,522 Z m 0.4,-40.3 c -5.8,4.6 -4.7,17 3.8,18 74.60979,-42.67729 150.25131,-85.81648 212,-122 6.1,-4.8 4.8,-18.7 -5.05,-17.85 -72.73783,41.31178 -148.55451,85.78517 -210.75,121.85 z m 0,-40 c -5.8,4.6 -4.7,17 3.8,18 74.60979,-41.2363 150.25131,-85.81648 212,-122 6.1,-4.8 4.8,-18.7 -4.8,-18 -6.4,2 -149,86 -211,122 z" color="#000" color-interpolation="sRGB" color-interpolation-filters="linearRGB" color-rendering="auto" image-rendering="auto" isolation="auto" mix-blend-mode="normal" opacity=".8" shape-rendering="auto" solid-color="#000000" solid-opacity="1" white-space="normal"/></svg>