<svg xmlns="http://www.w3.org/2000/svg" width="580" height="580" version="1.0"><metadata id="metadata2975"/><path id="path4167" fill="none" stroke="#fff" stroke-linejoin="round" stroke-width="64" d="M 341 68.900391 C 332 68.800391 329 82 324 95 C 309 135 294 177 278 217 C 211 217 143 216 76 217 C 61 221 66 237 69 248 C 85 314 100 380 115 446 C 120 462 138 456 150 457 C 253 456 355 456 458 455 C 474 454 473 435 477 424 C 492 360 508 296 522 231 C 522 215 504 216 493 217 L 316 217 L 364 88 C 365.97105 75.461417 361.87766 74.539031 341 68.900391 z M 98 245 L 151 245 L 151 300 C 139 300 128 301 111 301 C 98 245 108 289 98 245 z M 170 245 L 238 245 L 238 300 L 170 300 L 170 245 z M 257 245 L 329 245 L 329 300 L 257 300 L 257 245 z M 348 245 L 418 245 L 418 300 L 348 300 L 348 245 z M 437 245 L 492 245 C 487 263 483 282 479 300 L 437 300 L 437 245 z M 115 318 C 127.5638 318.20964 140.30551 318.14167 151 319 L 151 379 C 144 378 137 378 130 378 C 125 359 128 371 115 318 z M 169 319 L 237 319 L 237 379 L 169 379 L 169 319 z M 256 319 L 328 319 L 328 379 L 256 379 L 256 319 z M 347 319 L 417 319 L 417 379 L 347 379 L 347 319 z M 436 319 L 473 319 C 468 339 464 359 459 379 L 436 379 L 436 319 z M 133 398 L 150 398 L 150 429 C 140 428 139 430 138 425 C 136 418 134 404 133 398 z M 169 398 L 237 398 L 237 428 L 169 428 L 169 398 z M 256 398 L 328 398 L 328 428 L 256 428 L 256 398 z M 347 398 L 417 398 L 417 428 L 347 428 L 347 398 z M 436 398 L 455 398 C 452 406 449 419 447 427 C 431 427 436 436 436 398 z" color="#000" color-interpolation="sRGB" color-interpolation-filters="linearRGB" color-rendering="auto" filter-blend-mode="normal" filter-gaussianBlur-deviation="0" image-rendering="auto" isolation="auto" mix-blend-mode="normal" opacity=".8" shape-rendering="auto" solid-color="#000000" solid-opacity="1"/><path id="path4164" fill="#ac39ac" d="M 341 68.900391 C 332 68.800391 329 82 324 95 C 309 135 294 177 278 217 C 211 217 143 216 76 217 C 61 221 66 237 69 248 C 85 314 100 380 115 446 C 120 462 138 456 150 457 C 253 456 355 456 458 455 C 474 454 473 435 477 424 C 492 360 508 296 522 231 C 522 215 504 216 493 217 L 316 217 L 364 88 C 365.97105 75.461417 361.87766 74.539031 341 68.900391 z M 98 245 L 151 245 L 151 300 C 139 300 128 301 111 301 C 98 245 108 289 98 245 z M 170 245 L 238 245 L 238 300 L 170 300 L 170 245 z M 257 245 L 329 245 L 329 300 L 257 300 L 257 245 z M 348 245 L 418 245 L 418 300 L 348 300 L 348 245 z M 437 245 L 492 245 C 487 263 483 282 479 300 L 437 300 L 437 245 z M 115 318 C 127.5638 318.20964 140.30551 318.14167 151 319 L 151 379 C 144 378 137 378 130 378 C 125 359 128 371 115 318 z M 169 319 L 237 319 L 237 379 L 169 379 L 169 319 z M 256 319 L 328 319 L 328 379 L 256 379 L 256 319 z M 347 319 L 417 319 L 417 379 L 347 379 L 347 319 z M 436 319 L 473 319 C 468 339 464 359 459 379 L 436 379 L 436 319 z M 133 398 L 150 398 L 150 429 C 140 428 139 430 138 425 C 136 418 134 404 133 398 z M 169 398 L 237 398 L 237 428 L 169 428 L 169 398 z M 256 398 L 328 398 L 328 428 L 256 428 L 256 398 z M 347 398 L 417 398 L 417 428 L 347 428 L 347 398 z M 436 398 L 455 398 C 452 406 449 419 447 427 C 431 427 436 436 436 398 z" color="#000" color-interpolation="sRGB" color-interpolation-filters="linearRGB" color-rendering="auto" filter-blend-mode="normal" filter-gaussianBlur-deviation="0" image-rendering="auto" isolation="auto" mix-blend-mode="normal" shape-rendering="auto" solid-color="#000000" solid-opacity="1"/></svg>