<svg xmlns="http://www.w3.org/2000/svg" width="580" height="580" version="1.0"><metadata id="metadata2975"/><path id="path4136" fill="none" stroke="#fff" stroke-linejoin="round" stroke-width="64" d="m 238,69.9 35.5,69.6 C 201.85647,277.57135 133.9648,402.34008 70.8,520 l 434.2,0 0,0 1,0 C 438.24843,393.7415 371.88254,266.72481 305,140 L 340,72 317,60 290,111 261,58 Z M 378,494 202,494 c 20,-40 66,-134 88,-208 22,73 67,167 88,208 z" color="#000" color-interpolation="sRGB" color-interpolation-filters="linearRGB" color-rendering="auto" filter-blend-mode="normal" filter-gaussianBlur-deviation="0" image-rendering="auto" isolation="auto" mix-blend-mode="normal" opacity=".8" shape-rendering="auto" solid-color="#000000" solid-opacity="1" white-space="normal"/><path id="path2443" fill="#0092da" fill-rule="evenodd" d="m 238,69.9 35.5,69.6 C 201.85647,277.57135 133.9648,402.34008 70.8,520 l 434.2,0 0,0 1,0 C 438.24843,393.7415 371.88254,266.72481 305,140 L 340,72 317,60 290,111 261,58 Z M 378,494 202,494 c 20,-40 66,-134 88,-208 22,73 67,167 88,208 z" color="#000" color-interpolation="sRGB" color-interpolation-filters="linearRGB" color-rendering="auto" image-rendering="auto" isolation="auto" mix-blend-mode="normal" shape-rendering="auto" solid-color="#000000" solid-opacity="1" white-space="normal"/></svg>