<svg xmlns="http://www.w3.org/2000/svg" width="580" height="580" version="1.0"><metadata id="metadata10"/><g id="g1327"><path id="path1329" fill="#999" stroke="#eee" stroke-width="3.408" d="M 66.275,1.768 C 24.94,1.768 1.704,23.139 1.704,66.804 L 1.704,516.927 C 1.704,557.771 22.598,579.156 63.896,579.156 L 515.92,579.156 C 557.227,579.156 578.149,558.84 578.149,516.927 L 578.149,66.804 C 578.149,24.203 557.227,1.768 514.627,1.768 C 514.624,1.768 66.133,1.625 66.275,1.768 z"/></g><g id="g3779" stroke="#fff" transform="matrix(0.74835908,0,0,0.74835908,21.4084,4.6344149)"><path id="path3781" fill="none" stroke-linecap="round" stroke-linejoin="round" stroke-width="15.573" d="m 219.43574,376.07932 0.44048,-111.44093"/><path id="path3783" fill="none" stroke-linecap="round" stroke-linejoin="round" stroke-width="15.573" d="m 285.43186,303.99208 -35.23824,72.23839"/><path id="path3785" fill="none" stroke-linecap="round" stroke-linejoin="round" stroke-width="15.573" d="m 329.55523,332.03152 -43.16684,44.0478"/><path id="path3787" fill="none" stroke-linecap="round" stroke-linejoin="round" stroke-width="15.573" d="m 159.34959,300.90874 30.39298,75.32173"/><path id="path3789" fill="none" stroke-linecap="round" stroke-linejoin="round" stroke-width="15.573" d="m 110.82144,333.35295 42.72636,42.72637"/></g><g id="g3791" stroke="#fff" transform="matrix(0.74835908,0,0,0.74835908,221.4084,-91.36559)"><path id="path3793" fill="none" stroke-linecap="round" stroke-linejoin="round" stroke-width="15.573" d="m 219.43574,376.07932 0.44048,-111.44093"/><path id="path3795" fill="none" stroke-linecap="round" stroke-linejoin="round" stroke-width="15.573" d="m 285.43186,303.99208 -35.23824,72.23839"/><path id="path3797" fill="none" stroke-linecap="round" stroke-linejoin="round" stroke-width="15.573" d="m 329.55523,332.03152 -43.16684,44.0478"/><path id="path3799" fill="none" stroke-linecap="round" stroke-linejoin="round" stroke-width="15.573" d="m 159.34959,300.90874 30.39298,75.32173"/><path id="path3801" fill="none" stroke-linecap="round" stroke-linejoin="round" stroke-width="15.573" d="m 110.82144,333.35295 42.72636,42.72637"/></g><g id="g3805" stroke="#fff" transform="matrix(0.74835908,0,0,0.74835908,125.4084,154.63442)"><path id="path3807" fill="none" stroke-linecap="round" stroke-linejoin="round" stroke-width="15.573" d="m 219.43574,376.07932 0.44048,-111.44093"/><path id="path3809" fill="none" stroke-linecap="round" stroke-linejoin="round" stroke-width="15.573" d="m 285.43186,303.99208 -35.23824,72.23839"/><path id="path3811" fill="none" stroke-linecap="round" stroke-linejoin="round" stroke-width="15.573" d="m 329.55523,332.03152 -43.16684,44.0478"/><path id="path3813" fill="none" stroke-linecap="round" stroke-linejoin="round" stroke-width="15.573" d="m 159.34959,300.90874 30.39298,75.32173"/><path id="path3815" fill="none" stroke-linecap="round" stroke-linejoin="round" stroke-width="15.573" d="m 110.82144,333.35295 42.72636,42.72637"/></g></svg>