<svg xmlns="http://www.w3.org/2000/svg" width="580" height="580" version="1.0"><metadata id="metadata2975"/><path id="path4136" fill="none" stroke="#fff" stroke-linejoin="round" stroke-width="64" d="m 217,211 c -48.6,7.6 -97,13.9 -146,22 -14.3,8.6 -0.2,21.6 7.9,28.4 l 93,89 c -7.6,48.6 -16.4,97 -23,146 3.8,16.2 20.5,7 29.5,1.3 l 114,-61 c 43.7,22.4 87,46 131,68 16.6,1.5 13,-17.3 10.4,-27.6 L 410,349 c 34.8,-34.6 71,-68 105,-104 6.5,-15.3 -12.5,-17.6 -23,-18.3 L 364,209 c -22,-43 -43,-87 -66,-131 -2,-2.3 -5,-3.6 -8.4,-3.8 -13,1.7 -14,17.2 -19.8,26.55 z" color="#000" color-interpolation="sRGB" color-interpolation-filters="linearRGB" color-rendering="auto" filter-blend-mode="normal" filter-gaussianBlur-deviation="0" image-rendering="auto" isolation="auto" mix-blend-mode="normal" opacity=".8" shape-rendering="auto" solid-color="#000000" solid-opacity="1" white-space="normal"/><path id="path4631-1" fill="#734a08" d="m 217,211 c -48.6,7.6 -97,13.9 -146,22 -14.3,8.6 -0.2,21.6 7.9,28.4 l 93,89 c -7.6,48.6 -16.4,97 -23,146 3.8,16.2 20.5,7 29.5,1.3 l 114,-61 c 43.7,22.4 87,46 131,68 16.6,1.5 13,-17.3 10.4,-27.6 L 410,349 c 34.8,-34.6 71,-68 105,-104 6.5,-15.3 -12.5,-17.6 -23,-18.3 L 364,209 c -22,-43 -43,-87 -66,-131 -2,-2.3 -5,-3.6 -8.4,-3.8 -13,1.7 -14,17.2 -19.8,26.55 z" color="#000" color-interpolation="sRGB" color-interpolation-filters="linearRGB" color-rendering="auto" image-rendering="auto" isolation="auto" mix-blend-mode="normal" shape-rendering="auto" solid-color="#000000" solid-opacity="1" white-space="normal"/></svg>