<svg xmlns="http://www.w3.org/2000/svg" width="580" height="580" version="1.0"><metadata id="metadata2975"/><path id="path4133" fill="none" stroke="#fff" stroke-linejoin="round" stroke-width="64" d="M 144 145 L 144 194 L 212 194 L 174 289 L 67 289 L 67 339 L 154 339 L 105 461 L 163 461 L 213 339 L 367 339 L 417 461 L 476 461 L 427 339 L 513 339 L 513 289 L 407 289 L 368 194 L 437 194 L 437 145 L 144 145 z M 267 194 L 304 194 L 343 289 L 228 289 L 267 194 z" color="#000" color-interpolation="sRGB" color-interpolation-filters="linearRGB" color-rendering="auto" filter-blend-mode="normal" filter-gaussianBlur-deviation="0" image-rendering="auto" isolation="auto" mix-blend-mode="normal" opacity=".8" shape-rendering="auto" solid-color="#000000" solid-opacity="1" white-space="normal"/><path id="path4136" fill="#734a08" d="M 144 145 L 144 194 L 212 194 L 174 289 L 67 289 L 67 339 L 154 339 L 105 461 L 163 461 L 213 339 L 367 339 L 417 461 L 476 461 L 427 339 L 513 339 L 513 289 L 407 289 L 368 194 L 437 194 L 437 145 L 144 145 z M 267 194 L 304 194 L 343 289 L 228 289 L 267 194 z" color="#000" color-interpolation="sRGB" color-interpolation-filters="linearRGB" color-rendering="auto" image-rendering="auto" isolation="auto" mix-blend-mode="normal" shape-rendering="auto" solid-color="#000000" solid-opacity="1" white-space="normal"/></svg>