<svg xmlns="http://www.w3.org/2000/svg" width="580" height="580" version="1.0"><metadata id="metadata2975"/><path id="path4148" fill="none" stroke="#fff" stroke-linejoin="round" stroke-width="64" d="M 73 144 L 70 180 L 90 182 L 90 379 L 72 379 L 72 397 L 327 397 L 330 401 L 336 397 L 445 397 L 445 379 L 358 379 L 260 237 L 257 239 L 253 195 L 324 200 L 326 164 L 73 144 z M 126 185 L 163 188 L 163 379 L 127 379 L 126 185 z M 199 190 L 217 192 L 234 379 L 199 379 L 199 190 z M 263 305 L 314 379 L 270 379 L 263 305 z" color="#000" color-interpolation="sRGB" color-interpolation-filters="linearRGB" color-rendering="auto" filter-blend-mode="normal" filter-gaussianBlur-deviation="0" image-rendering="auto" isolation="auto" mix-blend-mode="normal" opacity=".8" shape-rendering="auto" solid-color="#000000" solid-opacity="1" white-space="normal"/><path id="path4150" fill="none" stroke="#fff" stroke-linejoin="round" stroke-width="64" d="m 53.6,433 449.4,0 0,-18 -449.4,0 z" color="#000" color-interpolation="sRGB" color-interpolation-filters="linearRGB" color-rendering="auto" filter-blend-mode="normal" filter-gaussianBlur-deviation="0" image-rendering="auto" isolation="auto" mix-blend-mode="normal" opacity=".8" shape-rendering="auto" solid-color="#000000" solid-opacity="1" white-space="normal"/><path id="path4152" fill="none" stroke="#fff" stroke-linejoin="round" stroke-width="64" d="m 35.8,469 505.2,0 0,-18 -505.1,0 z" color="#000" color-interpolation="sRGB" color-interpolation-filters="linearRGB" color-rendering="auto" filter-blend-mode="normal" filter-gaussianBlur-deviation="0" image-rendering="auto" isolation="auto" mix-blend-mode="normal" opacity=".8" shape-rendering="auto" solid-color="#000000" solid-opacity="1" white-space="normal"/><path id="path4145" fill="#734a08" fill-rule="evenodd" d="M 73 144 L 70 180 L 90 182 L 90 379 L 72 379 L 72 397 L 327 397 L 330 401 L 336 397 L 445 397 L 445 379 L 358 379 L 260 237 L 257 239 L 253 195 L 324 200 L 326 164 L 73 144 z M 126 185 L 163 188 L 163 379 L 127 379 L 126 185 z M 199 190 L 217 192 L 234 379 L 199 379 L 199 190 z M 263 305 L 314 379 L 270 379 L 263 305 z" color="#000" color-interpolation="sRGB" color-interpolation-filters="linearRGB" color-rendering="auto" image-rendering="auto" isolation="auto" mix-blend-mode="normal" shape-rendering="auto" solid-color="#000000" solid-opacity="1" white-space="normal"/><path id="path4137" fill="#734a08" fill-rule="evenodd" d="m 53.6,433 449.4,0 0,-18 -449.4,0 z" color="#000" color-interpolation="sRGB" color-interpolation-filters="linearRGB" color-rendering="auto" image-rendering="auto" isolation="auto" mix-blend-mode="normal" shape-rendering="auto" solid-color="#000000" solid-opacity="1" white-space="normal"/><path id="path2161" fill="#734a08" fill-rule="evenodd" d="m 35.8,469 505.2,0 0,-18 -505.1,0 z" color="#000" color-interpolation="sRGB" color-interpolation-filters="linearRGB" color-rendering="auto" image-rendering="auto" isolation="auto" mix-blend-mode="normal" shape-rendering="auto" solid-color="#000000" solid-opacity="1" white-space="normal"/></svg>