<svg xmlns="http://www.w3.org/2000/svg" width="580" height="580" version="1.0"><metadata id="metadata10"/><path id="path4147" fill="none" stroke="#fff" stroke-linejoin="round" stroke-width="64" d="m240 220l50.9-30.4 50 31.4c0 0 45.9 324 40 322l-196-.2z" color="#000" color-interpolation="sRGB" color-interpolation-filters="linearRGB" color-rendering="auto" filter-blend-mode="normal" filter-gaussianBlur-deviation="0" image-rendering="auto" isolation="auto" mix-blend-mode="normal" opacity=".8" shape-rendering="auto" solid-color="#000000" solid-opacity="1"/><path id="path4149" fill="none" stroke="#fff" stroke-linejoin="round" stroke-width="64" d="M 440.07812 36.986328 C 436.34211 37.034888 432.70664 38.717969 430.40039 41.699219 L 290 233 L 150 41.699219 C 145.2 35.999219 137.1 35.500781 132 40.050781 L 72 96 C 66.8 100.9 66.900391 109.3 72.400391 114 L 248 263 L 72 414 C 66.5 418.7 66.399609 427 71.599609 432 L 130.59961 487.69922 C 135.89961 492.59922 144.29961 491.9 148.59961 486 L 288.59961 294 L 429.59961 485 C 433.89961 490.8 442.29961 491.59922 447.59961 486.69922 L 506.59961 431 C 511.79961 426.1 511.69922 417.7 506.19922 413 L 332 263 L 507 114 C 512.5 109.3 512.60039 101 507.40039 96 L 448.40039 40 C 445.95039 37.9 442.98391 36.94856 440.07812 36.986328 z M 290.40039 256.69922 L 298 264.09961 L 290.40039 271.5 L 282.80078 264.09961 L 290.40039 256.69922 z" color="#000" color-interpolation="sRGB" color-interpolation-filters="linearRGB" color-rendering="auto" filter-blend-mode="normal" filter-gaussianBlur-deviation="0" image-rendering="auto" isolation="auto" mix-blend-mode="normal" opacity=".8" shape-rendering="auto" solid-color="#000000" solid-opacity="1" white-space="normal"/><path id="path4139" fill="none" stroke="#fff" stroke-linejoin="round" stroke-width="64" d="m185 541l54.9-320 50.9-30.4 50 31.4c0 0 45.9 324 40 322-5.3-2.6-195 1.3-196-2.6" color="#000" color-interpolation="sRGB" color-interpolation-filters="linearRGB" color-rendering="auto" filter-blend-mode="normal" filter-gaussianBlur-deviation="0" image-rendering="auto" isolation="auto" mix-blend-mode="normal" opacity=".8" shape-rendering="auto" solid-color="#000000" solid-opacity="1"/><path id="path4141" fill="none" stroke="#fff" stroke-linejoin="round" stroke-width="64" d="m 239.9,221 50.9,-30.4 50,31.4 c 0,0 45.9,324 40,322 -5.3,-2.6 -195,1.3 -195.9,-2.8 z" color="#000" color-interpolation="sRGB" color-interpolation-filters="linearRGB" color-rendering="auto" filter-blend-mode="normal" filter-gaussianBlur-deviation="0" image-rendering="auto" isolation="auto" mix-blend-mode="normal" opacity=".8" shape-rendering="auto" solid-color="#000000" solid-opacity="1"/><path id="path3457-1" fill="#fff" fill-rule="evenodd" d="m185 541l54.9-320 50.9-30.4 50 31.4c0 0 45.9 324 40 322-5.3-2.6-195 1.3-196-2.6"/><path id="path3457" fill="#734a08" fill-rule="evenodd" d="m 239.9,221 50.9,-30.4 50,31.4 c 0,0 45.9,324 40,322 -5.3,-2.6 -195,1.3 -195.9,-2.8 z" opacity=".5"/><path id="path4148" fill="#fff" fill-rule="evenodd" d="m185 541l54.9-320 50.9-30.4 50 31.4c0 0 45.9 324 40 322-5.3-2.6-195 1.3-196-2.6"/><path id="path4162" fill="#734a08" fill-rule="evenodd" d="m240 220l50.9-30.4 50 31.4c0 0 45.9 324 40 322l-196-.2z" opacity=".5"/><path id="path4144" fill="#734a08" fill-rule="evenodd" d="M 440.07812 36.986328 C 436.34211 37.034888 432.70664 38.717969 430.40039 41.699219 L 290 233 L 150 41.699219 C 145.2 35.999219 137.1 35.500781 132 40.050781 L 72 96 C 66.8 100.9 66.900391 109.3 72.400391 114 L 248 263 L 72 414 C 66.5 418.7 66.399609 427 71.599609 432 L 130.59961 487.69922 C 135.89961 492.59922 144.29961 491.9 148.59961 486 L 288.59961 294 L 429.59961 485 C 433.89961 490.8 442.29961 491.59922 447.59961 486.69922 L 506.59961 431 C 511.79961 426.1 511.69922 417.7 506.19922 413 L 332 263 L 507 114 C 512.5 109.3 512.60039 101 507.40039 96 L 448.40039 40 C 445.95039 37.9 442.98391 36.94856 440.07812 36.986328 z M 290.40039 256.69922 L 298 264.09961 L 290.40039 271.5 L 282.80078 264.09961 L 290.40039 256.69922 z" color="#000" color-interpolation="sRGB" color-interpolation-filters="linearRGB" color-rendering="auto" image-rendering="auto" isolation="auto" mix-blend-mode="normal" shape-rendering="auto" solid-color="#000000" solid-opacity="1" white-space="normal"/></svg>