<svg xmlns="http://www.w3.org/2000/svg" width="580" height="580" version="1.0"><metadata id="metadata10"/><g id="g1327"><path id="path1329" fill="#111" stroke="#eee" stroke-width="3.408" d="M 66.275,1.768 C 24.94,1.768 1.704,23.139 1.704,66.804 L 1.704,516.927 C 1.704,557.771 22.598,579.156 63.896,579.156 L 515.92,579.156 C 557.227,579.156 578.149,558.84 578.149,516.927 L 578.149,66.804 C 578.149,24.203 557.227,1.768 514.627,1.768 C 514.624,1.768 66.133,1.625 66.275,1.768 z"/></g><path id="path3831" fill="none" stroke="#fff" stroke-linecap="round" stroke-width="80" d="M 96.374372,94.415061 156.93802,154.97876"/><path id="path3833" fill="none" stroke="#fff" stroke-linecap="round" stroke-width="80" d="M 479.85476,94.415061 419.29111,154.97876"/><path id="path3837" fill="none" stroke="#fff" stroke-linecap="round" stroke-width="80" d="m 96.374372,475.54806 60.563648,-60.5637"/><path id="path3839" fill="none" stroke="#fff" stroke-linecap="round" stroke-width="80" d="m 479.85476,475.54806 -60.56365,-60.5637"/><path id="path3852" fill="none" stroke="#fff" stroke-linecap="round" stroke-linejoin="round" stroke-width="15.981" d="m 88,1083.5 a 45.5,45.5 0 1 1 -91,0 45.5,45.5 0 1 1 91,0 z" transform="matrix(3.754397,0,0,3.754397,129.09096,-3785.1688)"/><path id="path3907" fill="none" stroke="#fff" stroke-linecap="round" stroke-width="80" d="m 491.94531,288.67201 -22.2254,0"/><path id="path3909" fill="none" stroke="#fff" stroke-linecap="round" stroke-width="80" d="m 109.94531,288.67201 -22.2254,0"/><path id="path3911" fill="none" stroke="#fff" stroke-linecap="round" stroke-width="80" d="m 290.83261,463.55931 0,22.2254"/><path id="path3913" fill="none" stroke="#fff" stroke-linecap="round" stroke-width="80" d="m 290.83261,79.55931 0,22.2254"/><path id="path3921" fill="#fff" stroke="#fff" stroke-linecap="round" stroke-linejoin="round" stroke-width="15.981" d="m 88,1083.5 a 45.5,45.5 0 1 1 -91,0 45.5,45.5 0 1 1 91,0 z" opacity=".1" transform="matrix(3.754397,0,0,3.754397,129.09096,-3785.1688)"/></svg>