<svg xmlns="http://www.w3.org/2000/svg" width="580" height="580" version="1.0"><metadata id="metadata10"/><g id="g1327"><path id="path1329" fill="#111" stroke="#eee" stroke-width="3.408" d="M 66.275,1.768 C 24.94,1.768 1.704,23.139 1.704,66.804 L 1.704,516.927 C 1.704,557.771 22.598,579.156 63.896,579.156 L 515.92,579.156 C 557.227,579.156 578.149,558.84 578.149,516.927 L 578.149,66.804 C 578.149,24.203 557.227,1.768 514.627,1.768 C 514.624,1.768 66.133,1.625 66.275,1.768 z"/></g><path id="path1061" fill="#fff" stroke="#fff" stroke-linecap="round" stroke-width="1.25" d="M 358.45099,388.88488 A 11.516535,11.516535 0 1 1 358.45208,388.75969" transform="matrix(2.1230164,0,0,1.7621071,-435.4189,-539.85832)"/><path id="path1686" fill="none" fill-opacity=".75" fill-rule="evenodd" stroke="#fff" stroke-linecap="round" stroke-width="19.809" d="M 300.54222,162.60258 C 300.54222,162.90911 300.54222,163.21567 300.54222,163.5222 C 300.54222,187.85531 284.20952,399.78441 180.11187,538.73738"/><path id="path2308" fill="none" fill-opacity=".75" fill-rule="evenodd" stroke="#fff" stroke-linecap="round" stroke-width="19.809" d="M 300.2498,162.14279 C 300.2498,162.44933 300.2498,162.75589 300.2498,163.06242 C 300.2498,187.39547 316.5825,399.32463 420.68011,538.27769"/><path id="path4190" fill="none" stroke="#fff" stroke-linecap="round" stroke-width="12.499" d="M 659.80826,385.01245 A 377.16653,377.16653 0 0 1 621.99133,977.71708" transform="matrix(0.4194127,0,0,0.376063,150.18538,-103.88221)"/><path id="path4196" fill="none" stroke="#fff" stroke-linecap="round" stroke-width="12.499" d="M 559.42058,478.0061 A 240.40767,240.40767 0 0 1 534.50785,872.37959" display="block" transform="matrix(0.4194127,0,0,0.376063,149.65944,-103.51218)"/><path id="path4198" fill="none" stroke="#fff" stroke-linecap="round" stroke-width="12.499" d="M 485.29511,571.71763 A 120.92362,120.92362 0 0 1 472.76415,770.08514" display="block" transform="matrix(0.4201693,0,0,0.3487427,149.38752,-87.84677)"/><path id="path4209" fill="none" stroke="#fff" stroke-linecap="round" stroke-width="12.499" d="M 659.80826,385.01245 A 377.16653,377.16653 0 0 1 621.99133,977.71708" transform="matrix(-0.4194127,0,0,0.376063,455.72073,-103.66646)"/><path id="path4210" fill="none" stroke="#fff" stroke-linecap="round" stroke-width="12.499" d="M 559.42058,478.0061 A 240.40767,240.40767 0 0 1 534.50785,872.37959" display="block" transform="matrix(-0.4194127,0,0,0.376063,456.24791,-103.29644)"/><path id="path4212" fill="none" stroke="#fff" stroke-linecap="round" stroke-width="12.499" d="M 485.29511,571.71763 A 120.92362,120.92362 0 0 1 472.76415,770.08514" display="block" transform="matrix(-0.4201693,0,0,0.3487427,456.52906,-87.64671)"/><path id="path3758" fill="none" fill-rule="evenodd" stroke="#fff" stroke-linecap="round" stroke-width="12.53" d="M 325.84839,314.64087 L 257.34445,378.05373"/><path id="path3768" fill="none" fill-rule="evenodd" stroke="#fff" stroke-linecap="round" stroke-width="12.53" d="M 275.37692,314.64087 L 343.88086,378.05373"/><path id="path3770" fill="none" fill-rule="evenodd" stroke="#fff" stroke-linecap="round" stroke-width="15.422" d="M 270.86852,377.87329 L 378.09962,477.13518"/><path id="path3772" fill="none" fill-rule="evenodd" stroke="#fff" stroke-linecap="round" stroke-width="15.422" d="M 330.01303,377.87329 L 222.78193,477.13518"/></svg>