<svg xmlns="http://www.w3.org/2000/svg" width="580" height="580" version="1.0"><metadata id="metadata10"/><path id="path4141" fill="none" stroke="#fff" stroke-linejoin="round" stroke-width="64" d="m 258,42.5 c -7,-0.5 -15,0 -22,0.2 -44,1.3 -89,3.2 -130,20.3 -11,11 -5,27 -6,41 l 4,316 c -12.5,14.8 -26,32.6 -22.6,53 7.1,35 44.7,51 76,60 55.9,14 116,13.4 172,0.7 32.9,-8.6 72,-22.8 83,-58 1.3,-28 -7.8,-31.9 -18.9,-53 0.3,-35.4 -1.8,-41 13.6,-39.9 19.9,-3.1 40.6,-2.7 59.8,-8.5 16.5,-6.5 21.4,-24 22,-40 L 510,144 c -1,-23 -25,-39 -47,-33 -23,0 -46,1 -69,2 -1,-15 2,-32 -2,-46 C 359.32799,46.800924 296.18643,42.747697 258,42.5 Z M 466,146 c 17.91141,3.78666 6.52116,33.08254 5.9,46 -5.6,48.8 -11.6,98 -17,146 -19.39932,7.55772 -41.39362,8.57356 -62.9,12 l 1,-201 z" color="#000" color-interpolation="sRGB" color-interpolation-filters="linearRGB" color-rendering="auto" filter-blend-mode="normal" filter-gaussianBlur-deviation="0" image-rendering="auto" isolation="auto" mix-blend-mode="normal" opacity=".8" shape-rendering="auto" solid-color="#000000" solid-opacity="1" white-space="normal"/><path id="path4146" fill="#734a08" d="m 258,42.5 c -7,-0.5 -15,0 -22,0.2 -44,1.3 -89,3.2 -130,20.3 -11,11 -5,27 -6,41 l 4,316 c -12.5,14.8 -26,32.6 -22.6,53 7.1,35 44.7,51 76,60 55.9,14 116,13.4 172,0.7 32.9,-8.6 72,-22.8 83,-58 1.3,-28 -7.8,-31.9 -18.9,-53 0.3,-35.4 -1.8,-41 13.6,-39.9 19.9,-3.1 40.6,-2.7 59.8,-8.5 16.5,-6.5 21.4,-24 22,-40 L 510,144 c -1,-23 -25,-39 -47,-33 -23,0 -46,1 -69,2 -1,-15 2,-32 -2,-46 C 359.32799,46.800924 296.18643,42.747697 258,42.5 Z M 466,146 c 17.91141,3.78666 6.52116,33.08254 5.9,46 -5.6,48.8 -11.6,98 -17,146 -19.39932,7.55772 -41.39362,8.57356 -62.9,12 l 1,-201 z" color="#000" color-interpolation="sRGB" color-interpolation-filters="linearRGB" color-rendering="auto" image-rendering="auto" isolation="auto" mix-blend-mode="normal" shape-rendering="auto" solid-color="#000000" solid-opacity="1" white-space="normal"/><path id="path4156" fill="#fff" d="M 349.90039 121.44922 C 258.00039 121.39922 206 171.00078 136 131.30078 L 139 430 C 162 450 193 457 222 459 C 268 460 318 456 357 428 L 358.80078 122 C 355.80078 121.9 352.80039 121.89922 349.90039 121.44922 z M 373 454 C 350 472 322 480 293 485 C 236 493 170 494 122 455 C 104 479 144 491 161 497 C 212 512 268 511 320 499 C 341 493 369 488 378 466 C 378 462 376 458 373 454 z" color="#000" color-interpolation="sRGB" color-interpolation-filters="linearRGB" color-rendering="auto" image-rendering="auto" isolation="auto" mix-blend-mode="normal" opacity=".9" shape-rendering="auto" solid-color="#000000" solid-opacity="1" white-space="normal"/><path id="path2209" fill="#fff" d="m 135,90 0.5,41.8 c 73,41 126,-13.3 223,-10.2 L 359,89 C 341,85 323,82 305,80 283.6,78.9 262.1,78 241,78.1 205,78 169,81 135,90 Z" opacity=".5"/></svg>