<svg xmlns="http://www.w3.org/2000/svg" width="580" height="580" version="1.0"><metadata id="metadata2975"/><path id="path4149" fill="none" fill-rule="evenodd" stroke="#fff" stroke-linejoin="round" stroke-width="64" d="m55.8 236c-7 7.8-.8 16.3 11.6 16.5l30.9 0c.1 94-.3 189 .2 283 3.3 12.2 18.3 6.9 27.4 8 116-.1 231 .3 347-.2 12.2-3.3 6.9-18.3 8-27.4l0-263c13.2-.8 25-.2 39.8-1.2 8.7-4.6 4.6-14.5-3-20C451 180 311 66 294 57.8 291 55 286 56.9 283 58 265 71 124 183 55.8 236" color="#000" color-interpolation="sRGB" color-interpolation-filters="linearRGB" color-rendering="auto" image-rendering="auto" isolation="auto" mix-blend-mode="normal" opacity=".8" shape-rendering="auto" solid-color="#000000" solid-opacity="1" white-space="normal"/><path id="path3198" fill="#ac39ac" fill-rule="evenodd" d="m55.8 236c-7 7.8-.8 16.3 11.6 16.5l30.9 0c.1 94-.3 189 .2 283 3.3 12.2 18.3 6.9 27.4 8 116-.1 231 .3 347-.2 12.2-3.3 6.9-18.3 8-27.4l0-263c13.2-.8 25-.2 39.8-1.2 8.7-4.6 4.6-14.5-3-20C451 180 311 66 294 57.8 291 55 286 56.9 283 58 265 71 124 183 55.8 236" color="#000" color-interpolation="sRGB" color-interpolation-filters="linearRGB" color-rendering="auto" image-rendering="auto" isolation="auto" mix-blend-mode="normal" shape-rendering="auto" solid-color="#000000" solid-opacity="1" white-space="normal"/><path id="path4162" fill="#fff" fill-rule="evenodd" d="m290 80l197 152c-8.8.6-24-3.5-25.8 9.3-.1 94 0 188 0 282l-342 0c-.1-94 .3-189-.2-283-2.9-11.6-17-7.2-25.6-8z" color="#000" color-interpolation="sRGB" color-interpolation-filters="linearRGB" color-rendering="auto" image-rendering="auto" isolation="auto" mix-blend-mode="normal" opacity=".8" shape-rendering="auto" solid-color="#000000" solid-opacity="1" white-space="normal"/><path id="path4146" fill="#ac39ac" d="M292 135C278 135 264 148 266 170 156 192 160 304 267 329L267 434C241 428 228 400 225 376 212 376 191 379 181 382 170 422 239 472 268 471 268 520 311 507 313 472 431 455 431 319 314 299L314 205C339 202 349 237 350 248 364 246 379 245 393 242 384 204 351 171 313 169 315 146 303 135 292 135M268 204L268 288C221 272 227 215 268 204M314 341C401 358 350 449 311 437L314 341"/></svg>