<svg xmlns="http://www.w3.org/2000/svg" width="580" height="580" version="1.0"><metadata id="metadata2975"/><g id="g1327"><path id="path1329" fill="#734A08" stroke="#eee" stroke-width="3.408" d="M 66.275,1.768 C 24.94,1.768 1.704,23.139 1.704,66.804 L 1.704,516.927 C 1.704,557.771 22.599,579.156 63.896,579.156 L 515.92,579.156 C 557.227,579.156 578.149,558.841 578.149,516.927 L 578.149,66.804 C 578.149,24.203 557.227,1.768 514.628,1.768 C 514.624,1.768 66.133,1.625 66.275,1.768 z"/></g><path id="path3470" fill="#fff" fill-rule="evenodd" stroke="#fff" stroke-linecap="round" stroke-linejoin="round" stroke-width="10" d="M 73.931354,159.8883 L 302.43289,419.37306 L 521.25215,293.50359 L 298.56009,35.95529 L 73.931354,159.8883 z"/><path id="path3474" fill="#fff" fill-rule="evenodd" stroke="#fff" stroke-linecap="round" stroke-linejoin="round" stroke-width="10" d="M 61.6534,188.60064 L 286.28195,444.21251 L 287.2502,541.03514 L 60.685154,284.9392 L 61.6534,188.60064 z"/><path id="path3476" fill="#fff" fill-rule="evenodd" stroke="#fff" stroke-linecap="round" stroke-linejoin="round" stroke-width="16.477" d="M 519.50933,327.13704 L 313.25992,447.99014 L 313.11567,451.17546 L 519.19198,330.40891 L 519.50933,327.13704 z" opacity=".75"/><path id="path3505" fill="#fff" fill-rule="evenodd" stroke="#fff" stroke-linecap="round" stroke-linejoin="round" stroke-width="16.477" d="M 519.50933,367.13704 L 313.25992,487.99014 L 313.11567,491.17546 L 519.19198,370.40891 L 519.50933,367.13704 z" opacity=".75"/><path id="path3507" fill="#fff" fill-rule="evenodd" stroke="#fff" stroke-linecap="round" stroke-linejoin="round" stroke-width="16.477" d="M 519.50933,407.13704 L 313.25992,527.99014 L 313.11567,531.17546 L 519.19198,410.40891 L 519.50933,407.13704 z" opacity=".75"/></svg>