<svg xmlns="http://www.w3.org/2000/svg" width="580" height="580" version="1.0"><metadata id="metadata10"/><g id="g1327"><path id="path1329" fill="#8E7409" stroke="#eee" stroke-width="3.408" d="M 66.275,1.768 C 24.94,1.768 1.704,23.139 1.704,66.804 L 1.704,516.927 C 1.704,557.771 22.598,579.156 63.896,579.156 L 515.92,579.156 C 557.227,579.156 578.149,558.84 578.149,516.927 L 578.149,66.804 C 578.149,24.203 557.227,1.768 514.627,1.768 C 514.624,1.768 66.133,1.625 66.275,1.768 z"/></g><path id="rect3172" fill="#fff" stroke="#fff" stroke-linecap="round" stroke-linejoin="round" stroke-width="10" d="m 105.34375,184.09375 c 10.21887,107.49256 2.61939,210.69427 -24,336.5625 l 32,0 160.125,0 32,0 c -26.61939,-125.86823 -34.21887,-229.06994 -24,-336.5625 -33.38204,14.58679 -62.50651,12.53748 -88.0625,14.40625 -25.55599,-1.86877 -54.68046,0.18054 -88.0625,-14.40625 z"/><path id="rect3947" fill="#fff" stroke="#fff" stroke-linecap="round" stroke-linejoin="round" stroke-width="8.369" d="m 278.18442,400.18442 232.63116,0 0,120.63116 -232.63116,0 z"/><g id="g4076" transform="translate(0,14)"><path id="path3950" fill="#fff" stroke="#fff" stroke-linecap="round" stroke-linejoin="round" stroke-width="5" d="m 248,137 c 0,4.97056 -20.37104,9 -45.5,9 -25.12896,0 -45.5,-4.02944 -45.5,-9 0,-4.97056 20.37104,-9 45.5,-9 25.12896,0 45.5,4.02944 45.5,9 z" opacity=".2"/><path id="path3952" fill="#fff" stroke="#fff" stroke-linecap="round" stroke-linejoin="round" stroke-width="5" d="m 248,137 c 0,4.97056 -20.37104,9 -45.5,9 -25.12896,0 -45.5,-4.02944 -45.5,-9 0,-4.97056 20.37104,-9 45.5,-9 25.12896,0 45.5,4.02944 45.5,9 z" opacity=".2" transform="translate(20,-20)"/><path id="path3956" fill="#fff" stroke="#fff" stroke-linecap="round" stroke-linejoin="round" stroke-width="5" d="m 248,137 c 0,4.97056 -20.37104,9 -45.5,9 -25.12896,0 -45.5,-4.02944 -45.5,-9 0,-4.97056 20.37104,-9 45.5,-9 25.12896,0 45.5,4.02944 45.5,9 z" opacity=".2" transform="translate(40,-40)"/><path id="path3958" fill="#fff" stroke="#fff" stroke-linecap="round" stroke-linejoin="round" stroke-width="5" d="m 248,137 c 0,4.97056 -20.37104,9 -45.5,9 -25.12896,0 -45.5,-4.02944 -45.5,-9 0,-4.97056 20.37104,-9 45.5,-9 25.12896,0 45.5,4.02944 45.5,9 z" opacity=".2" transform="translate(60,-40)"/><path id="path3960" fill="#fff" stroke="#fff" stroke-linecap="round" stroke-linejoin="round" stroke-width="5" d="m 248,137 c 0,4.97056 -20.37104,9 -45.5,9 -25.12896,0 -45.5,-4.02944 -45.5,-9 0,-4.97056 20.37104,-9 45.5,-9 25.12896,0 45.5,4.02944 45.5,9 z" opacity=".2" transform="translate(40,-30)"/><path id="path3962" fill="#fff" stroke="#fff" stroke-linecap="round" stroke-linejoin="round" stroke-width="5" d="m 248,137 c 0,4.97056 -20.37104,9 -45.5,9 -25.12896,0 -45.5,-4.02944 -45.5,-9 0,-4.97056 20.37104,-9 45.5,-9 25.12896,0 45.5,4.02944 45.5,9 z" opacity=".2" transform="translate(80,-50)"/><path id="path3964" fill="#fff" stroke="#fff" stroke-linecap="round" stroke-linejoin="round" stroke-width="5" d="m 248,137 c 0,4.97056 -20.37104,9 -45.5,9 -25.12896,0 -45.5,-4.02944 -45.5,-9 0,-4.97056 20.37104,-9 45.5,-9 25.12896,0 45.5,4.02944 45.5,9 z" opacity=".2" transform="translate(40,-58)"/><path id="path3966" fill="#fff" stroke="#fff" stroke-linecap="round" stroke-linejoin="round" stroke-width="5" d="m 248,137 c 0,4.97056 -20.37104,9 -45.5,9 -25.12896,0 -45.5,-4.02944 -45.5,-9 0,-4.97056 20.37104,-9 45.5,-9 25.12896,0 45.5,4.02944 45.5,9 z" opacity=".2" transform="translate(20,-68)"/><path id="path3968" fill="#fff" stroke="#fff" stroke-linecap="round" stroke-linejoin="round" stroke-width="5" d="m 248,137 c 0,4.97056 -20.37104,9 -45.5,9 -25.12896,0 -45.5,-4.02944 -45.5,-9 0,-4.97056 20.37104,-9 45.5,-9 25.12896,0 45.5,4.02944 45.5,9 z" opacity=".2" transform="translate(60,-68)"/><path id="path3970" fill="#fff" stroke="#fff" stroke-linecap="round" stroke-linejoin="round" stroke-width="5" d="m 248,137 c 0,4.97056 -20.37104,9 -45.5,9 -25.12896,0 -45.5,-4.02944 -45.5,-9 0,-4.97056 20.37104,-9 45.5,-9 25.12896,0 45.5,4.02944 45.5,9 z" opacity=".2" transform="translate(120,-68)"/><path id="path3972" fill="#fff" stroke="#fff" stroke-linecap="round" stroke-linejoin="round" stroke-width="5" d="m 248,137 c 0,4.97056 -20.37104,9 -45.5,9 -25.12896,0 -45.5,-4.02944 -45.5,-9 0,-4.97056 20.37104,-9 45.5,-9 25.12896,0 45.5,4.02944 45.5,9 z" opacity=".2" transform="translate(100,-56)"/><path id="path3974" fill="#fff" stroke="#fff" stroke-linecap="round" stroke-linejoin="round" stroke-width="5" d="m 248,137 c 0,4.97056 -20.37104,9 -45.5,9 -25.12896,0 -45.5,-4.02944 -45.5,-9 0,-4.97056 20.37104,-9 45.5,-9 25.12896,0 45.5,4.02944 45.5,9 z" opacity=".2" transform="translate(100,-36)"/><path id="path3976" fill="#fff" stroke="#fff" stroke-linecap="round" stroke-linejoin="round" stroke-width="5" d="m 248,137 c 0,4.97056 -20.37104,9 -45.5,9 -25.12896,0 -45.5,-4.02944 -45.5,-9 0,-4.97056 20.37104,-9 45.5,-9 25.12896,0 45.5,4.02944 45.5,9 z" opacity=".2" transform="translate(110,-48)"/><path id="path3978" fill="#fff" stroke="#fff" stroke-linecap="round" stroke-linejoin="round" stroke-width="5" d="m 248,137 c 0,4.97056 -20.37104,9 -45.5,9 -25.12896,0 -45.5,-4.02944 -45.5,-9 0,-4.97056 20.37104,-9 45.5,-9 25.12896,0 45.5,4.02944 45.5,9 z" opacity=".2" transform="translate(130,-64)"/><path id="path3980" fill="#fff" stroke="#fff" stroke-linecap="round" stroke-linejoin="round" stroke-width="5" d="m 248,137 c 0,4.97056 -20.37104,9 -45.5,9 -25.12896,0 -45.5,-4.02944 -45.5,-9 0,-4.97056 20.37104,-9 45.5,-9 25.12896,0 45.5,4.02944 45.5,9 z" opacity=".2" transform="translate(26,-12)"/><path id="path3982" fill="#fff" stroke="#fff" stroke-linecap="round" stroke-linejoin="round" stroke-width="5" d="m 248,137 c 0,4.97056 -20.37104,9 -45.5,9 -25.12896,0 -45.5,-4.02944 -45.5,-9 0,-4.97056 20.37104,-9 45.5,-9 25.12896,0 45.5,4.02944 45.5,9 z" opacity=".2" transform="translate(10,-6)"/><path id="path3984" fill="#fff" stroke="#fff" stroke-linecap="round" stroke-linejoin="round" stroke-width="5" d="m 248,137 c 0,4.97056 -20.37104,9 -45.5,9 -25.12896,0 -45.5,-4.02944 -45.5,-9 0,-4.97056 20.37104,-9 45.5,-9 25.12896,0 45.5,4.02944 45.5,9 z" opacity=".2" transform="translate(30,-26)"/><path id="path3986" fill="#fff" stroke="#fff" stroke-linecap="round" stroke-linejoin="round" stroke-width="5" d="m 248,137 c 0,4.97056 -20.37104,9 -45.5,9 -25.12896,0 -45.5,-4.02944 -45.5,-9 0,-4.97056 20.37104,-9 45.5,-9 25.12896,0 45.5,4.02944 45.5,9 z" opacity=".2" transform="translate(50,-46)"/><path id="path3988" fill="#fff" stroke="#fff" stroke-linecap="round" stroke-linejoin="round" stroke-width="5" d="m 248,137 c 0,4.97056 -20.37104,9 -45.5,9 -25.12896,0 -45.5,-4.02944 -45.5,-9 0,-4.97056 20.37104,-9 45.5,-9 25.12896,0 45.5,4.02944 45.5,9 z" opacity=".2" transform="translate(70,-46)"/><path id="path3990" fill="#fff" stroke="#fff" stroke-linecap="round" stroke-linejoin="round" stroke-width="5" d="m 248,137 c 0,4.97056 -20.37104,9 -45.5,9 -25.12896,0 -45.5,-4.02944 -45.5,-9 0,-4.97056 20.37104,-9 45.5,-9 25.12896,0 45.5,4.02944 45.5,9 z" opacity=".2" transform="translate(50,-36)"/><path id="path3992" fill="#fff" stroke="#fff" stroke-linecap="round" stroke-linejoin="round" stroke-width="5" d="m 248,137 c 0,4.97056 -20.37104,9 -45.5,9 -25.12896,0 -45.5,-4.02944 -45.5,-9 0,-4.97056 20.37104,-9 45.5,-9 25.12896,0 45.5,4.02944 45.5,9 z" opacity=".2" transform="translate(90,-56)"/><path id="path3994" fill="#fff" stroke="#fff" stroke-linecap="round" stroke-linejoin="round" stroke-width="5" d="m 248,137 c 0,4.97056 -20.37104,9 -45.5,9 -25.12896,0 -45.5,-4.02944 -45.5,-9 0,-4.97056 20.37104,-9 45.5,-9 25.12896,0 45.5,4.02944 45.5,9 z" opacity=".2" transform="translate(50,-64)"/><path id="path3996" fill="#fff" stroke="#fff" stroke-linecap="round" stroke-linejoin="round" stroke-width="5" d="m 248,137 c 0,4.97056 -20.37104,9 -45.5,9 -25.12896,0 -45.5,-4.02944 -45.5,-9 0,-4.97056 20.37104,-9 45.5,-9 25.12896,0 45.5,4.02944 45.5,9 z" opacity=".2" transform="translate(30,-74)"/><path id="path3998" fill="#fff" stroke="#fff" stroke-linecap="round" stroke-linejoin="round" stroke-width="5" d="m 248,137 c 0,4.97056 -20.37104,9 -45.5,9 -25.12896,0 -45.5,-4.02944 -45.5,-9 0,-4.97056 20.37104,-9 45.5,-9 25.12896,0 45.5,4.02944 45.5,9 z" opacity=".2" transform="translate(70,-74)"/><path id="path4000" fill="#fff" stroke="#fff" stroke-linecap="round" stroke-linejoin="round" stroke-width="5" d="m 248,137 c 0,4.97056 -20.37104,9 -45.5,9 -25.12896,0 -45.5,-4.02944 -45.5,-9 0,-4.97056 20.37104,-9 45.5,-9 25.12896,0 45.5,4.02944 45.5,9 z" opacity=".2" transform="translate(130,-74)"/><path id="path4002" fill="#fff" stroke="#fff" stroke-linecap="round" stroke-linejoin="round" stroke-width="5" d="m 248,137 c 0,4.97056 -20.37104,9 -45.5,9 -25.12896,0 -45.5,-4.02944 -45.5,-9 0,-4.97056 20.37104,-9 45.5,-9 25.12896,0 45.5,4.02944 45.5,9 z" opacity=".2" transform="translate(110,-62)"/><path id="path4004" fill="#fff" stroke="#fff" stroke-linecap="round" stroke-linejoin="round" stroke-width="5" d="m 248,137 c 0,4.97056 -20.37104,9 -45.5,9 -25.12896,0 -45.5,-4.02944 -45.5,-9 0,-4.97056 20.37104,-9 45.5,-9 25.12896,0 45.5,4.02944 45.5,9 z" opacity=".2" transform="translate(110,-42)"/><path id="path4006" fill="#fff" stroke="#fff" stroke-linecap="round" stroke-linejoin="round" stroke-width="5" d="m 248,137 c 0,4.97056 -20.37104,9 -45.5,9 -25.12896,0 -45.5,-4.02944 -45.5,-9 0,-4.97056 20.37104,-9 45.5,-9 25.12896,0 45.5,4.02944 45.5,9 z" opacity=".2" transform="translate(120,-54)"/><path id="path4008" fill="#fff" stroke="#fff" stroke-linecap="round" stroke-linejoin="round" stroke-width="5" d="m 248,137 c 0,4.97056 -20.37104,9 -45.5,9 -25.12896,0 -45.5,-4.02944 -45.5,-9 0,-4.97056 20.37104,-9 45.5,-9 25.12896,0 45.5,4.02944 45.5,9 z" opacity=".2" transform="translate(140,-70)"/><path id="path4010" fill="#fff" stroke="#fff" stroke-linecap="round" stroke-linejoin="round" stroke-width="5" d="m 248,137 c 0,4.97056 -20.37104,9 -45.5,9 -25.12896,0 -45.5,-4.02944 -45.5,-9 0,-4.97056 20.37104,-9 45.5,-9 25.12896,0 45.5,4.02944 45.5,9 z" opacity=".2" transform="translate(36,-18)"/><path id="path4012" fill="#fff" stroke="#fff" stroke-linecap="round" stroke-linejoin="round" stroke-width="5" d="m 248,137 c 0,4.97056 -20.37104,9 -45.5,9 -25.12896,0 -45.5,-4.02944 -45.5,-9 0,-4.97056 20.37104,-9 45.5,-9 25.12896,0 45.5,4.02944 45.5,9 z" opacity=".2" transform="translate(32,-6)"/><path id="path4014" fill="#fff" stroke="#fff" stroke-linecap="round" stroke-linejoin="round" stroke-width="5" d="m 248,137 c 0,4.97056 -20.37104,9 -45.5,9 -25.12896,0 -45.5,-4.02944 -45.5,-9 0,-4.97056 20.37104,-9 45.5,-9 25.12896,0 45.5,4.02944 45.5,9 z" opacity=".2" transform="translate(52,-26)"/><path id="path4016" fill="#fff" stroke="#fff" stroke-linecap="round" stroke-linejoin="round" stroke-width="5" d="m 248,137 c 0,4.97056 -20.37104,9 -45.5,9 -25.12896,0 -45.5,-4.02944 -45.5,-9 0,-4.97056 20.37104,-9 45.5,-9 25.12896,0 45.5,4.02944 45.5,9 z" opacity=".2" transform="translate(72,-46)"/><path id="path4018" fill="#fff" stroke="#fff" stroke-linecap="round" stroke-linejoin="round" stroke-width="5" d="m 248,137 c 0,4.97056 -20.37104,9 -45.5,9 -25.12896,0 -45.5,-4.02944 -45.5,-9 0,-4.97056 20.37104,-9 45.5,-9 25.12896,0 45.5,4.02944 45.5,9 z" opacity=".2" transform="translate(92,-46)"/><path id="path4020" fill="#fff" stroke="#fff" stroke-linecap="round" stroke-linejoin="round" stroke-width="5" d="m 248,137 c 0,4.97056 -20.37104,9 -45.5,9 -25.12896,0 -45.5,-4.02944 -45.5,-9 0,-4.97056 20.37104,-9 45.5,-9 25.12896,0 45.5,4.02944 45.5,9 z" opacity=".2" transform="translate(72,-36)"/><path id="path4022" fill="#fff" stroke="#fff" stroke-linecap="round" stroke-linejoin="round" stroke-width="5" d="m 248,137 c 0,4.97056 -20.37104,9 -45.5,9 -25.12896,0 -45.5,-4.02944 -45.5,-9 0,-4.97056 20.37104,-9 45.5,-9 25.12896,0 45.5,4.02944 45.5,9 z" opacity=".2" transform="translate(112,-56)"/><path id="path4024" fill="#fff" stroke="#fff" stroke-linecap="round" stroke-linejoin="round" stroke-width="5" d="m 248,137 c 0,4.97056 -20.37104,9 -45.5,9 -25.12896,0 -45.5,-4.02944 -45.5,-9 0,-4.97056 20.37104,-9 45.5,-9 25.12896,0 45.5,4.02944 45.5,9 z" opacity=".2" transform="translate(72,-64)"/><path id="path4026" fill="#fff" stroke="#fff" stroke-linecap="round" stroke-linejoin="round" stroke-width="5" d="m 248,137 c 0,4.97056 -20.37104,9 -45.5,9 -25.12896,0 -45.5,-4.02944 -45.5,-9 0,-4.97056 20.37104,-9 45.5,-9 25.12896,0 45.5,4.02944 45.5,9 z" opacity=".2" transform="translate(52,-74)"/><path id="path4028" fill="#fff" stroke="#fff" stroke-linecap="round" stroke-linejoin="round" stroke-width="5" d="m 248,137 c 0,4.97056 -20.37104,9 -45.5,9 -25.12896,0 -45.5,-4.02944 -45.5,-9 0,-4.97056 20.37104,-9 45.5,-9 25.12896,0 45.5,4.02944 45.5,9 z" opacity=".2" transform="translate(92,-74)"/><path id="path4030" fill="#fff" stroke="#fff" stroke-linecap="round" stroke-linejoin="round" stroke-width="5" d="m 248,137 c 0,4.97056 -20.37104,9 -45.5,9 -25.12896,0 -45.5,-4.02944 -45.5,-9 0,-4.97056 20.37104,-9 45.5,-9 25.12896,0 45.5,4.02944 45.5,9 z" opacity=".2" transform="translate(152,-74)"/><path id="path4032" fill="#fff" stroke="#fff" stroke-linecap="round" stroke-linejoin="round" stroke-width="5" d="m 248,137 c 0,4.97056 -20.37104,9 -45.5,9 -25.12896,0 -45.5,-4.02944 -45.5,-9 0,-4.97056 20.37104,-9 45.5,-9 25.12896,0 45.5,4.02944 45.5,9 z" opacity=".2" transform="translate(132,-62)"/><path id="path4034" fill="#fff" stroke="#fff" stroke-linecap="round" stroke-linejoin="round" stroke-width="5" d="m 248,137 c 0,4.97056 -20.37104,9 -45.5,9 -25.12896,0 -45.5,-4.02944 -45.5,-9 0,-4.97056 20.37104,-9 45.5,-9 25.12896,0 45.5,4.02944 45.5,9 z" opacity=".2" transform="translate(132,-42)"/><path id="path4036" fill="#fff" stroke="#fff" stroke-linecap="round" stroke-linejoin="round" stroke-width="5" d="m 248,137 c 0,4.97056 -20.37104,9 -45.5,9 -25.12896,0 -45.5,-4.02944 -45.5,-9 0,-4.97056 20.37104,-9 45.5,-9 25.12896,0 45.5,4.02944 45.5,9 z" opacity=".2" transform="translate(142,-54)"/><path id="path4038" fill="#fff" stroke="#fff" stroke-linecap="round" stroke-linejoin="round" stroke-width="5" d="m 248,137 c 0,4.97056 -20.37104,9 -45.5,9 -25.12896,0 -45.5,-4.02944 -45.5,-9 0,-4.97056 20.37104,-9 45.5,-9 25.12896,0 45.5,4.02944 45.5,9 z" opacity=".2" transform="translate(162,-70)"/><path id="path4040" fill="#fff" stroke="#fff" stroke-linecap="round" stroke-linejoin="round" stroke-width="5" d="m 248,137 c 0,4.97056 -20.37104,9 -45.5,9 -25.12896,0 -45.5,-4.02944 -45.5,-9 0,-4.97056 20.37104,-9 45.5,-9 25.12896,0 45.5,4.02944 45.5,9 z" opacity=".2" transform="translate(58,-18)"/><path id="path4042" fill="#fff" stroke="#fff" stroke-linecap="round" stroke-linejoin="round" stroke-width="5" d="m 248,137 c 0,4.97056 -20.37104,9 -45.5,9 -25.12896,0 -45.5,-4.02944 -45.5,-9 0,-4.97056 20.37104,-9 45.5,-9 25.12896,0 45.5,4.02944 45.5,9 z" opacity=".2" transform="translate(52,-16)"/><path id="path4044" fill="#fff" stroke="#fff" stroke-linecap="round" stroke-linejoin="round" stroke-width="5" d="m 248,137 c 0,4.97056 -20.37104,9 -45.5,9 -25.12896,0 -45.5,-4.02944 -45.5,-9 0,-4.97056 20.37104,-9 45.5,-9 25.12896,0 45.5,4.02944 45.5,9 z" opacity=".2" transform="translate(72,-36)"/><path id="path4046" fill="#fff" stroke="#fff" stroke-linecap="round" stroke-linejoin="round" stroke-width="5" d="m 248,137 c 0,4.97056 -20.37104,9 -45.5,9 -25.12896,0 -45.5,-4.02944 -45.5,-9 0,-4.97056 20.37104,-9 45.5,-9 25.12896,0 45.5,4.02944 45.5,9 z" opacity=".2" transform="translate(92,-56)"/><path id="path4048" fill="#fff" stroke="#fff" stroke-linecap="round" stroke-linejoin="round" stroke-width="5" d="m 248,137 c 0,4.97056 -20.37104,9 -45.5,9 -25.12896,0 -45.5,-4.02944 -45.5,-9 0,-4.97056 20.37104,-9 45.5,-9 25.12896,0 45.5,4.02944 45.5,9 z" opacity=".2" transform="translate(112,-56)"/><path id="path4050" fill="#fff" stroke="#fff" stroke-linecap="round" stroke-linejoin="round" stroke-width="5" d="m 248,137 c 0,4.97056 -20.37104,9 -45.5,9 -25.12896,0 -45.5,-4.02944 -45.5,-9 0,-4.97056 20.37104,-9 45.5,-9 25.12896,0 45.5,4.02944 45.5,9 z" opacity=".2" transform="translate(92,-46)"/><path id="path4052" fill="#fff" stroke="#fff" stroke-linecap="round" stroke-linejoin="round" stroke-width="5" d="m 248,137 c 0,4.97056 -20.37104,9 -45.5,9 -25.12896,0 -45.5,-4.02944 -45.5,-9 0,-4.97056 20.37104,-9 45.5,-9 25.12896,0 45.5,4.02944 45.5,9 z" opacity=".2" transform="translate(132,-66)"/><path id="path4054" fill="#fff" stroke="#fff" stroke-linecap="round" stroke-linejoin="round" stroke-width="5" d="m 248,137 c 0,4.97056 -20.37104,9 -45.5,9 -25.12896,0 -45.5,-4.02944 -45.5,-9 0,-4.97056 20.37104,-9 45.5,-9 25.12896,0 45.5,4.02944 45.5,9 z" opacity=".2" transform="translate(92,-74)"/><path id="path4056" fill="#fff" stroke="#fff" stroke-linecap="round" stroke-linejoin="round" stroke-width="5" d="m 248,137 c 0,4.97056 -20.37104,9 -45.5,9 -25.12896,0 -45.5,-4.02944 -45.5,-9 0,-4.97056 20.37104,-9 45.5,-9 25.12896,0 45.5,4.02944 45.5,9 z" opacity=".2" transform="translate(72,-84)"/><path id="path4058" fill="#fff" stroke="#fff" stroke-linecap="round" stroke-linejoin="round" stroke-width="5" d="m 248,137 c 0,4.97056 -20.37104,9 -45.5,9 -25.12896,0 -45.5,-4.02944 -45.5,-9 0,-4.97056 20.37104,-9 45.5,-9 25.12896,0 45.5,4.02944 45.5,9 z" opacity=".2" transform="translate(112,-84)"/><path id="path4060" fill="#fff" stroke="#fff" stroke-linecap="round" stroke-linejoin="round" stroke-width="5" d="m 248,137 c 0,4.97056 -20.37104,9 -45.5,9 -25.12896,0 -45.5,-4.02944 -45.5,-9 0,-4.97056 20.37104,-9 45.5,-9 25.12896,0 45.5,4.02944 45.5,9 z" opacity=".2" transform="translate(172,-84)"/><path id="path4062" fill="#fff" stroke="#fff" stroke-linecap="round" stroke-linejoin="round" stroke-width="5" d="m 248,137 c 0,4.97056 -20.37104,9 -45.5,9 -25.12896,0 -45.5,-4.02944 -45.5,-9 0,-4.97056 20.37104,-9 45.5,-9 25.12896,0 45.5,4.02944 45.5,9 z" opacity=".2" transform="translate(152,-72)"/><path id="path4064" fill="#fff" stroke="#fff" stroke-linecap="round" stroke-linejoin="round" stroke-width="5" d="m 248,137 c 0,4.97056 -20.37104,9 -45.5,9 -25.12896,0 -45.5,-4.02944 -45.5,-9 0,-4.97056 20.37104,-9 45.5,-9 25.12896,0 45.5,4.02944 45.5,9 z" opacity=".2" transform="translate(152,-52)"/><path id="path4066" fill="#fff" stroke="#fff" stroke-linecap="round" stroke-linejoin="round" stroke-width="5" d="m 248,137 c 0,4.97056 -20.37104,9 -45.5,9 -25.12896,0 -45.5,-4.02944 -45.5,-9 0,-4.97056 20.37104,-9 45.5,-9 25.12896,0 45.5,4.02944 45.5,9 z" opacity=".2" transform="translate(162,-64)"/><path id="path4068" fill="#fff" stroke="#fff" stroke-linecap="round" stroke-linejoin="round" stroke-width="5" d="m 248,137 c 0,4.97056 -20.37104,9 -45.5,9 -25.12896,0 -45.5,-4.02944 -45.5,-9 0,-4.97056 20.37104,-9 45.5,-9 25.12896,0 45.5,4.02944 45.5,9 z" opacity=".2" transform="translate(182,-80)"/><path id="path4070" fill="#fff" stroke="#fff" stroke-linecap="round" stroke-linejoin="round" stroke-width="5" d="m 248,137 c 0,4.97056 -20.37104,9 -45.5,9 -25.12896,0 -45.5,-4.02944 -45.5,-9 0,-4.97056 20.37104,-9 45.5,-9 25.12896,0 45.5,4.02944 45.5,9 z" opacity=".2" transform="translate(78,-28)"/></g></svg>