<svg xmlns="http://www.w3.org/2000/svg" width="580" height="580" version="1.0"><metadata id="metadata10"/><g id="g1327"><path id="path1329" fill="#8E7409" stroke="#eee" stroke-width="3.408" d="M 66.275,1.768 C 24.94,1.768 1.704,23.139 1.704,66.804 L 1.704,516.927 C 1.704,557.771 22.598,579.156 63.896,579.156 L 515.92,579.156 C 557.227,579.156 578.149,558.84 578.149,516.927 L 578.149,66.804 C 578.149,24.203 557.227,1.768 514.627,1.768 C 514.624,1.768 66.133,1.625 66.275,1.768 z"/></g><path id="path3812" fill="none" stroke="#fff" stroke-width="8.894" d="M 240.29595,136.807 C 139.62482,217.41717 35.59798,135.39278 35.59798,135.39278" opacity=".75"/><path id="path3814" fill="none" stroke="#fff" stroke-width="8.917" d="M 550.39906,138.807 C 449.18541,219.41717 344.59798,137.39278 344.59798,137.39278" opacity=".75"/><path id="path3882" fill="none" stroke="#fff" stroke-linecap="square" stroke-width="40" d="m 288.14928,90.096315 0,422.849865"/><path id="path4652" fill="none" stroke="#fff" stroke-linecap="round" stroke-width="31.22" d="m 360.87127,134.52125 -142.32189,0"/></svg>