<svg xmlns="http://www.w3.org/2000/svg" width="580" height="580" version="1.0"><metadata id="metadata10"/><g id="g1327"><path id="path1329" fill="#8E7409" stroke="#eee" stroke-width="3.408" d="M 66.275,1.768 C 24.94,1.768 1.704,23.139 1.704,66.804 L 1.704,516.927 C 1.704,557.771 22.598,579.156 63.896,579.156 L 515.92,579.156 C 557.227,579.156 578.149,558.84 578.149,516.927 L 578.149,66.804 C 578.149,24.203 557.227,1.768 514.627,1.768 C 514.624,1.768 66.133,1.625 66.275,1.768 z"/></g><g id="g3183" transform="translate(2,-6)"><path id="path4742" fill="none" stroke="#fff" stroke-linecap="round" stroke-width="20" d="m 436.53836,435.43685 c -0.24704,0.005 -40.22701,0.008 -40.47526,0.008 l 0,0 c -19.5539,0 -35.40547,-15.85157 -35.40547,-35.40547 0,-19.5539 15.85157,-35.40547 35.40547,-35.40547 0.24825,0 0.49591,0.003 0.74294,0.008 m 0,-0.57537 c -0.24703,0.005 -0.49469,0.008 -0.74294,0.008 l 0,0 c -19.5539,0 -35.40547,-15.85157 -35.40547,-35.40547 0,-19.5539 15.85157,-35.40547 35.40547,-35.40547 0.24825,0 0.49591,0.003 0.74294,0.008 m 0,-1.31115 c -0.24703,0.005 -0.49469,0.008 -0.74294,0.008 l 0,0 c -19.5539,0 -35.40547,-15.85157 -35.40547,-35.40547 0,-19.5539 15.85157,-35.40547 35.40547,-35.40547 0.24825,0 0.49591,0.003 0.74294,0.008 m 0,-0.57537 c -0.24703,0.005 -0.49469,0.008 -0.74294,0.008 l 0,0 c -19.5539,0 -35.40547,-15.85157 -35.40547,-35.40547 0,-19.5539 15.85157,-35.40547 35.40547,-35.40547 0.24825,0 40.22822,0.003 40.47526,0.008"/><path id="path4749" fill="none" stroke="#fff" stroke-linecap="round" stroke-width="20" d="m 133.50091,435.43685 c 0.24703,0.005 40.22701,0.008 40.47526,0.008 l 0,0 c 19.5539,0 35.40547,-15.85157 35.40547,-35.40547 0,-19.5539 -15.85157,-35.40547 -35.40547,-35.40547 -0.24825,0 -0.49591,0.003 -0.74295,0.008 m 0,-0.57537 c 0.24704,0.005 0.4947,0.008 0.74295,0.008 l 0,0 c 19.5539,0 35.40547,-15.85157 35.40547,-35.40547 0,-19.5539 -15.85157,-35.40547 -35.40547,-35.40547 -0.24825,0 -0.49591,0.003 -0.74295,0.008 m 0,-1.31115 c 0.24704,0.005 0.4947,0.008 0.74295,0.008 l 0,0 c 19.5539,0 35.40547,-15.85157 35.40547,-35.40547 0,-19.5539 -15.85157,-35.40547 -35.40547,-35.40547 -0.24825,0 -0.49591,0.003 -0.74295,0.008 m 0,-0.57537 c 0.24704,0.005 0.4947,0.008 0.74295,0.008 l 0,0 c 19.5539,0 35.40547,-15.85157 35.40547,-35.40547 0,-19.5539 -15.85157,-35.40547 -35.40547,-35.40547 -0.24825,0 -40.22823,0.003 -40.47526,0.008"/><path id="path4755" fill="none" stroke="#fff" stroke-linecap="round" stroke-width="20" d="m 313.50482,153.14216 0,280.94989"/><path id="path4759" fill="none" stroke="#fff" stroke-linecap="round" stroke-width="20" d="m 259.43131,153.14216 0,280.94989"/></g></svg>