<svg xmlns="http://www.w3.org/2000/svg" width="580" height="580" version="1.0"><metadata id="metadata2975"/><defs id="defs4"><symbol id="symbol-university" viewBox="244.5 110 489 219.9"><path id="path4460" d="M79,43l57,119c0,0,21-96,104-96s124,106,124,106l43-133l82-17L0,17L79,43z"/><path id="path4462" fill="none" stroke="#000" stroke-width="20" d="M94,176l-21,39"/><path id="path4464" d="M300,19c0,10.5-22.6,19-50.5,19S199,29.5,199,19s22.6-19,50.5-19S300,8.5,300,19z"/><path id="path4466" stroke="#000" stroke-width="20" d="M112,216l-16-38L64,88c0,0-9-8-4-35s16-24,16-24" ill="none"/></symbol><marker id="Arrow2Lend" orient="auto" refX="0" refY="0"><path id="path4137" fill-rule="evenodd" stroke-linejoin="round" stroke-width=".625" d="M 8.7185878,4.0337352 L -2.2072895,0.016013256 L 8.7185884,-4.0017078 C 6.9730900,-1.6296469 6.9831476,1.6157441 8.7185878,4.0337352 z" transform="scale(1.1) rotate(180) translate(1,0)"/></marker><marker id="Arrow1Mend" orient="auto" refX="0" refY="0"><path id="path4125" fill-rule="evenodd" stroke="#000" stroke-width="1.25" d="M 0.0,0.0 L 5.0,-5.0 L -12.5,0.0 L 5.0,5.0 L 0.0,0.0 z" transform="scale(0.4) rotate(180) translate(10,0)"/></marker><marker id="TriangleOutL" orient="auto" refX="0" refY="0"><path id="path4214" fill-rule="evenodd" stroke="#000" stroke-width="1.25" d="M 5.77,0.0 L -2.88,5.0 L -2.88,-5.0 L 5.77,0.0 z" transform="scale(0.8)"/></marker><marker id="Arrow1Lend" orient="auto" refX="0" refY="0"><path id="path4119" fill-rule="evenodd" stroke="#000" stroke-width="1.25" d="M 0.0,0.0 L 5.0,-5.0 L -12.5,0.0 L 5.0,5.0 L 0.0,0.0 z" transform="scale(0.8) rotate(180) translate(12.5,0)"/></marker><marker id="Tail" orient="auto" refX="0" refY="0"><g id="g4152" transform="scale(-1.2)"><path id="path4154" fill="none" fill-rule="evenodd" stroke="#000" stroke-linecap="round" stroke-width=".8" d="M -3.8048674,-3.9585227 L 0.54352094,0"/><path id="path4156" fill="none" fill-rule="evenodd" stroke="#000" stroke-linecap="round" stroke-width=".8" d="M -1.2866832,-3.9585227 L 3.0617053,0"/><path id="path4158" fill="none" fill-rule="evenodd" stroke="#000" stroke-linecap="round" stroke-width=".8" d="M 1.3053582,-3.9585227 L 5.6537466,0"/><path id="path4160" fill="none" fill-rule="evenodd" stroke="#000" stroke-linecap="round" stroke-width=".8" d="M -3.8048674,4.1775838 L 0.54352094,0.21974226"/><path id="path4162" fill="none" fill-rule="evenodd" stroke="#000" stroke-linecap="round" stroke-width=".8" d="M -1.2866832,4.1775838 L 3.0617053,0.21974226"/><path id="path4164" fill="none" fill-rule="evenodd" stroke="#000" stroke-linecap="round" stroke-width=".8" d="M 1.3053582,4.1775838 L 5.6537466,0.21974226"/></g></marker><marker id="Arrow1Sstart" orient="auto" refX="0" refY="0"><path id="path4128" fill-rule="evenodd" stroke="#000" stroke-width="1.25" d="M 0.0,0.0 L 5.0,-5.0 L -12.5,0.0 L 5.0,5.0 L 0.0,0.0 z" transform="scale(0.2) translate(6,0)"/></marker><marker id="Arrow1Send" orient="auto" refX="0" refY="0"><path id="path4131" fill-rule="evenodd" stroke="#000" stroke-width="1.25" d="M 0.0,0.0 L 5.0,-5.0 L -12.5,0.0 L 5.0,5.0 L 0.0,0.0 z" transform="scale(0.2) rotate(180) translate(6,0)"/></marker><marker id="SemiCircleOut" orient="auto" refX="0" refY="0"><path id="path4235" fill-rule="evenodd" stroke="#000" stroke-width="1.25" d="M -2.5,-0.80913858 C -2.5,1.9508614 -4.7400000,4.1908614 -7.5,4.1908614 L -7.5,-5.8091386 C -4.7400000,-5.8091386 -2.5,-3.5691386 -2.5,-0.80913858 z" transform="scale(0.6) translate(7.125493,0.763446)"/></marker><marker id="Arrow2Send" orient="auto" refX="0" refY="0"><path id="path4149" fill-rule="evenodd" stroke-linejoin="round" stroke-width=".625" d="M 8.7185878,4.0337352 L -2.2072895,0.016013256 L 8.7185884,-4.0017078 C 6.9730900,-1.6296469 6.9831476,1.6157441 8.7185878,4.0337352 z" transform="scale(0.3) rotate(180) translate(-2.3,0)"/></marker><marker id="TriangleOutS" orient="auto" refX="0" refY="0"><path id="path4220" fill-rule="evenodd" stroke="#000" stroke-width="1.25" d="M 5.77,0.0 L -2.88,5.0 L -2.88,-5.0 L 5.77,0.0 z" transform="scale(0.2)"/></marker><marker id="CurveIn" orient="auto" refX="0" refY="0"><path id="path4238" fill="none" fill-rule="evenodd" stroke="#000" stroke-width="1.25" d="M 4.6254930,-5.0456926 C 1.8654930,-5.0456926 -0.37450702,-2.8056926 -0.37450702,-0.045692580 C -0.37450702,2.7143074 1.8654930,4.9543074 4.6254930,4.9543074" transform="scale(0.6)"/></marker><marker id="InfiniteLineStart" orient="auto"><g id="g4298" transform="translate(-13,0)"><circle id="circle4300" cx="3" r=".8"/><circle id="circle4302" cx="6.5" r=".8"/><circle id="circle4304" cx="10" r=".8"/></g></marker><marker id="StopS" orient="auto" refX="0" refY="0"><path id="path4229" fill="none" fill-opacity=".75" fill-rule="evenodd" stroke="#000" stroke-width="1.25" d="M 0.0,5.65 L 0.0,-5.65" transform="scale(0.2)"/></marker><marker id="Arrow2Sstart" orient="auto" refX="0" refY="0"><path id="path4146" fill-rule="evenodd" stroke-linejoin="round" stroke-width=".625" d="M 8.7185878,4.0337352 L -2.2072895,0.016013256 L 8.7185884,-4.0017078 C 6.9730900,-1.6296469 6.9831476,1.6157441 8.7185878,4.0337352 z" transform="scale(0.3) translate(-2.3,0)"/></marker><marker id="DiamondS" orient="auto" refX="0" refY="0"><path id="path4202" fill-rule="evenodd" stroke="#000" stroke-width="1.25" d="M 0,-7.0710768 L -7.0710894,0 L 0,7.0710589 L 7.0710462,0 L 0,-7.0710768 z" transform="scale(0.2)"/></marker><marker id="RazorWire" orient="auto">style=&quot;overflow:visible&quot;&gt;<path id="path4286" fill="gray" fill-rule="evenodd" stroke="#000" stroke-width=".125" d="M 0.022727273,-0.74009011 L 0.022727273,0.69740989 L -7.7585227,3.0099099 L 10.678977,3.0099099 L 3.4914773,0.69740989 L 3.4914773,-0.74009011 L 10.741477,-2.8963401 L -7.7272727,-2.8963401 L 0.022727273,-0.74009011 z" transform="scale(0.8,0.8)"/></marker><marker id="ArrowStart" markerHeight="3" markerUnits="strokeWidth" markerWidth="4" orient="auto" refX="10" refY="5" viewBox="0 0 10 10"><path id="path1968" d="M 10 0 L 0 5 L 10 10 z"/></marker><marker id="ArrowEnd" markerHeight="3" markerUnits="strokeWidth" markerWidth="4" orient="auto" refY="5" viewBox="0 0 10 10"><path id="path1965" d="M 0 0 L 10 5 L 0 10 z"/></marker></defs><g id="g1327"><path id="path1329" fill="#0092da" stroke="#eee" stroke-width="3.408" d="M 66.275,1.768 C 24.94,1.768 1.704,23.139 1.704,66.804 L 1.704,516.927 C 1.704,557.771 22.599,579.156 63.896,579.156 L 515.92,579.156 C 557.227,579.156 578.149,558.841 578.149,516.927 L 578.149,66.804 C 578.149,24.203 557.227,1.768 514.628,1.768 C 514.624,1.768 66.133,1.625 66.275,1.768 z"/></g><path id="path30859" fill="none" stroke="#fff" stroke-width="10.203" d="M 208.7127,117.9537 333.07725,36.035961 454.73526,117.8877 333.16165,199.77627 208.7127,117.9537 z"/><path id="path29926" fill="#fff" fill-rule="evenodd" stroke="#fff" d="m 160.41817,491.74312 c 0.43281,67.56962 97.21497,67.57086 97.21497,0.60759"/><path id="path30815" fill="#fff" fill-rule="evenodd" stroke="#fff" d="m 360.92405,491.7233 c 0.43282,67.56962 97.21497,67.57086 97.21497,0.60759"/><path id="path30821" fill="#fff" fill-rule="evenodd" stroke="#fff" d="m 268.11413,522.5785 81.41754,0 c -4.14386,-7.17737 -6.03434,-14.78615 -5.77213,-30.37969 l -68.50618,0 c -0.48497,15.8109 -2.96383,23.14768 -7.13923,30.37969 z"/><path id="path30827" fill="#fff" fill-rule="evenodd" stroke="#fff" d="m 131.77163,205.029 0.27328,30.78975 376.99221,0 0,-30.78975 -377.26549,0 z"/><path id="path30833" fill="#fff" fill-rule="evenodd" stroke="#fff" d="m 480.43363,234.40679 c 7.58287,5.35346 14.57502,9.87803 14.57502,14.48394 l -0.0911,102.38957 c -1.77496,10.05829 -8.9163,11.74021 -14.48393,17.30785 l 28.60349,0 0,-134.18136 -28.60349,0 z"/><path id="path30839" fill="#fff" fill-rule="evenodd" stroke="#fff" d="m 270.74634,234.72407 c 7.58289,5.35345 14.57994,9.882 14.57994,14.48792 l -0.0886,188.16651 c -1.77496,10.05828 -8.92375,11.72291 -14.49138,17.29054 l 34.59355,-0.26458 0.43151,-205.58342 c 0,-4.06837 7.20375,-8.83149 14.63843,-14.08105 l -49.66349,-0.0159 z"/><path id="path30849" fill="#fff" fill-rule="evenodd" stroke="#fff" d="m 224.52251,234.55124 c -7.58289,5.35345 -14.57994,9.882 -14.57994,14.48791 l 0.0886,188.16652 c 1.77496,10.05828 8.92375,11.72291 14.49138,17.29054 l -34.59355,-0.005 0.21252,-219.82158 34.38103,-0.11794 z"/><path id="path30853" fill="#fff" fill-rule="evenodd" stroke="#fff" d="m 131.7212,234.17906 -65.952005,131.26635 0,79.61609 c 1.5e-5,14.37924 16.979427,29.32707 29.924355,29.28669 l 413.34357,0 0,-106.35215 -204.64739,0 0,86.31149 -113.50303,0 0,-86.17485 -57.11589,0 c -12.94931,-10e-6 -34.80333,-15.56068 -26.9638,-44.81821 l 43.86172,-89.13541 -18.94753,0 z"/><path id="path30857" fill="#fff" fill-rule="evenodd" stroke="#fff" d="m 306.47577,351.37859 c 1.77496,10.05828 9.13631,11.29779 14.70394,16.86542 -11.43275,-0.0212 -30.02772,-0.14759 -30.06886,-1.20447 l -0.60232,-15.46855 15.96724,-0.1924 z"/><path id="path31750" fill="#fff" fill-rule="evenodd" stroke="#fff" d="m 438.29341,205.67655 -10.41177,-10.91967 -192.7448,0 -8.88809,10.66572 212.04466,0.25395 z"/></svg>