<svg xmlns="http://www.w3.org/2000/svg" width="580" height="580" version="1.0"><metadata id="metadata2975"/><defs id="defs4"><symbol id="symbol-university" viewBox="244.5 110 489 219.9"><path id="path4460" d="M79,43l57,119c0,0,21-96,104-96s124,106,124,106l43-133l82-17L0,17L79,43z"/><path id="path4462" fill="none" stroke="#000" stroke-width="20" d="M94,176l-21,39"/><path id="path4464" d="M300,19c0,10.5-22.6,19-50.5,19S199,29.5,199,19s22.6-19,50.5-19S300,8.5,300,19z"/><path id="path4466" stroke="#000" stroke-width="20" d="M112,216l-16-38L64,88c0,0-9-8-4-35s16-24,16-24" ill="none"/></symbol></defs><g id="g1327"><path id="path1329" fill="#0092DA" stroke="#eee" stroke-width="3.408" d="M 66.275,1.768 C 24.94,1.768 1.704,23.139 1.704,66.804 L 1.704,516.927 C 1.704,557.771 22.599,579.156 63.896,579.156 L 515.92,579.156 C 557.227,579.156 578.149,558.841 578.149,516.927 L 578.149,66.804 C 578.149,24.203 557.227,1.768 514.628,1.768 C 514.624,1.768 66.133,1.625 66.275,1.768 z"/></g><g id="g5357" stroke="#fff" transform="matrix(1.3478532,0,0,1.3478532,-72.982065,-138.36479)"><path id="path4817" fill="none" stroke-linecap="round" stroke-linejoin="round" stroke-width="74.2" d="M 256.05495,237.14675 241.67023,317.3127"/><path id="path5329" fill="none" stroke-linecap="round" stroke-linejoin="round" stroke-width="32.6" d="M 330.52502,307.73122 296.11201,278.04332 273.66832,225.7194"/><path id="path5331" fill="none" stroke-linecap="round" stroke-linejoin="round" stroke-width="41.3" d="M 313.55883,487.77682 302.16655,393.38367"/><path id="path5333" fill="none" stroke-linecap="round" stroke-linejoin="round" stroke-width="45.1" d="m 245.20517,315.8077 54.24893,74.86352"/><path id="path5335" fill="none" stroke-linecap="round" stroke-linejoin="round" stroke-width="45.1" d="m 226.76053,316.89268 1.62747,87.34077"/><path id="path5337" fill="none" stroke-linecap="round" stroke-linejoin="round" stroke-width="45.31" d="m 192.04122,489.40429 37.43176,-80.83092"/><path id="path5339" fill="#fff" stroke-linecap="round" stroke-linejoin="round" stroke-width="45.1" d="m 278.89197,151.40646 c -9.43171,0.42792 -13.14501,14.03074 -5.34375,19.21875 7.10539,5.86065 18.86748,-1.24234 16.9375,-10.3125 -0.85188,-5.43638 -6.10237,-9.52 -11.59375,-8.90625 z"/><path id="path5417" fill="none" stroke-linecap="round" stroke-linejoin="round" stroke-width="32.6" d="m 177.5811,312.56103 16.29998,-55.44688 51.61336,-38.63946"/></g></svg>