<svg xmlns="http://www.w3.org/2000/svg" width="580" height="580" version="1.0"><metadata id="metadata2975"/><path id="path4141" fill="none" fill-rule="evenodd" stroke="#fff" stroke-linejoin="round" stroke-width="64" d="m 231,218 -82,0 c 0,44.33333 0,88.66667 0,133 l 82,0 0,82 132,0 0,-82 82,0 0,-133 -82,0 0,-81 c -44,0 -88,0 -132,0 z" color="#000" color-interpolation="sRGB" color-interpolation-filters="linearRGB" color-rendering="auto" filter-blend-mode="normal" filter-gaussianBlur-deviation="0" image-rendering="auto" isolation="auto" mix-blend-mode="normal" opacity=".8" shape-rendering="auto" solid-color="#000000" solid-opacity="1" white-space="normal"/><path id="path4143" fill="none" fill-rule="evenodd" stroke="#fff" stroke-linejoin="round" stroke-width="64" d="m 101,481.6 393,0 0,-393 -393,-0.3 c 0,131.1 0,262.2 0,393.3 z m 372,-372 0,351 -351,0 0,-351 z" color="#000" color-interpolation="sRGB" color-interpolation-filters="linearRGB" color-rendering="auto" filter-blend-mode="normal" filter-gaussianBlur-deviation="0" image-rendering="auto" isolation="auto" mix-blend-mode="normal" opacity=".8" shape-rendering="auto" solid-color="#000000" solid-opacity="1" white-space="normal"/><path id="rect2160" fill="#da0092" d="m 231,218 -82,0 c 0,44.33333 0,88.66667 0,133 l 82,0 0,82 132,0 0,-82 82,0 0,-133 -82,0 0,-81 c -44,0 -88,0 -132,0 z" color="#000" color-interpolation="sRGB" color-interpolation-filters="linearRGB" color-rendering="auto" image-rendering="auto" isolation="auto" mix-blend-mode="normal" shape-rendering="auto" solid-color="#000000" solid-opacity="1" white-space="normal"/><path id="rect3184" fill="#da0092" d="m 101,481.6 393,0 0,-393 -393,-0.3 c 0,131.1 0,262.2 0,393.3 z m 372,-372 0,351 -351,0 0,-351 z" color="#000" color-interpolation="sRGB" color-interpolation-filters="linearRGB" color-rendering="auto" image-rendering="auto" isolation="auto" mix-blend-mode="normal" shape-rendering="auto" solid-color="#000000" solid-opacity="1" white-space="normal"/></svg>