<svg xmlns="http://www.w3.org/2000/svg" width="580" height="580" version="1.0"><metadata id="metadata2975"/><path id="path4142" fill="none" stroke="#fff" stroke-linejoin="round" stroke-width="64" d="m 333.4082,239.80078 c -4.05705,52.83752 -7.97544,107.27619 -10.74218,151.79892 1.33172,12.36242 11.81493,23 25.33398,23 32.33334,-0.3331 64.66669,-0.66662 97.00003,-1 13.44016,0 24.05695,-9.94808 25.34375,-23 0.22336,-47.57134 -0.40528,-96.53651 -0.74417,-144.5997 0,-14.39987 -12.04379,-25.49157 -25.41406,-25.59375 l -84.09375,-6.00586 c -14.75458,1.04928 -25.63304,15.2893 -26.6836,25.40039 z" color="#000" color-interpolation="sRGB" color-interpolation-filters="linearRGB" color-rendering="auto" filter-blend-mode="normal" filter-gaussianBlur-deviation="0" image-rendering="auto" isolation="auto" mix-blend-mode="normal" opacity=".8" shape-rendering="auto" solid-color="#000000" solid-opacity="1" white-space="normal"/><path id="path4144" fill="none" stroke="#fff" stroke-linejoin="round" stroke-width="64" d="m 102,163 c -4,4 -6,11 -6,17 l 0,208 c 0,13 10,23 23,23 l 97,0 c 13,0 23,-10 23,-23 l 0,0 0,0 -6,-176 c -0.45443,-5.5379 -2.1836,-11.15846 -5,-15 -4,-4 -9,-7 -16,-10 l -92,-30 c -6.96524,-1.59555 -14.15061,1.02707 -18,6 z" color="#000" color-interpolation="sRGB" color-interpolation-filters="linearRGB" color-rendering="auto" filter-blend-mode="normal" filter-gaussianBlur-deviation="0" image-rendering="auto" isolation="auto" mix-blend-mode="normal" opacity=".8" shape-rendering="auto" solid-color="#000000" solid-opacity="1"/><path id="path4137" fill="#666" d="m 333.4082,239.80078 c -4.05705,52.83752 -7.97544,107.27619 -10.74218,151.79892 1.33172,12.36242 11.81493,23 25.33398,23 32.33334,-0.3331 64.66669,-0.66662 97.00003,-1 13.44016,0 24.05695,-9.94808 25.34375,-23 0.22336,-47.57134 -0.40528,-96.53651 -0.74417,-144.5997 0,-14.39987 -12.04379,-25.49157 -25.41406,-25.59375 l -84.09375,-6.00586 c -14.75458,1.04928 -25.63304,15.2893 -26.6836,25.40039 z" color="#000" color-interpolation="sRGB" color-interpolation-filters="linearRGB" color-rendering="auto" image-rendering="auto" isolation="auto" mix-blend-mode="normal" shape-rendering="auto" solid-color="#000000" solid-opacity="1" white-space="normal"/><path id="path6056" fill="#666" d="m 102,163 c -4,4 -6,11 -6,17 l 0,208 c 0,13 10,23 23,23 l 97,0 c 13,0 23,-10 23,-23 l 0,0 0,0 -6,-176 c -0.45443,-5.5379 -2.1836,-11.15846 -5,-15 -4,-4 -9,-7 -16,-10 l -92,-30 c -6.96524,-1.59555 -14.15061,1.02707 -18,6 z"/></svg>