<svg xmlns="http://www.w3.org/2000/svg" width="580" height="580" version="1.0"><metadata id="metadata10"/><path id="path4136" fill="none" stroke="#fff" stroke-linejoin="round" stroke-width="64" d="m 239,159 c -13,13 -20,31 -20,50 l 0,171 c -2,1 -5,1 -7,2 -8,2 -11,6 -11,10 l 0,25 c -1,5 4,10 14,12 19,6 42,5 64,6 29,0 59,0 86,-5 8,-3 14,-7 14,-11 l 0,0 0,-27 c 0,-2 -1,-5 -4,-7 -4,-2 -9,-4 -15,-5 l 0,-171 c 0,-19 -7,-38 -21,-51 -13,-13 -32,-21 -50,-21 -19,1 -37,8 -50,22 z" color="#000" color-interpolation="sRGB" color-interpolation-filters="linearRGB" color-rendering="auto" filter-blend-mode="normal" filter-gaussianBlur-deviation="0" image-rendering="auto" isolation="auto" mix-blend-mode="normal" opacity=".8" shape-rendering="auto" solid-color="#000000" solid-opacity="1"/><path id="path4689" fill="#666" d="m 239,159 c -13,13 -20,31 -20,50 l 0,171 c -2,1 -5,1 -7,2 -8,2 -11,6 -11,10 l 0,25 c -1,5 4,10 14,12 19,6 42,5 64,6 29,0 59,0 86,-5 8,-3 14,-7 14,-11 l 0,0 0,-27 c 0,-2 -1,-5 -4,-7 -4,-2 -9,-4 -15,-5 l 0,-171 c 0,-19 -7,-38 -21,-51 -13,-13 -32,-21 -50,-21 -19,1 -37,8 -50,22 z" color="#000"/></svg>