<svg xmlns="http://www.w3.org/2000/svg" width="580" height="580" version="1.0"><metadata id="metadata2975"/><path id="path4138" fill="none" stroke="#fff" stroke-linejoin="round" stroke-width="64" d="m 380,421 c 10.8,34.4 53.8,16 49,-10 l -31,-161 49,0 0,172 c 0.7,28 36.7,19.7 34.8,-0.4 L 482,199 c -2,-25.7 -34.9,-19.4 -35,-0.4 l 0,16.4 -56,0 -13,-71 c -14,-35 -55.9,-17.8 -49,9 z" color="#000" color-interpolation="sRGB" color-interpolation-filters="linearRGB" color-rendering="auto" filter-blend-mode="normal" filter-gaussianBlur-deviation="0" image-rendering="auto" isolation="auto" mix-blend-mode="normal" opacity=".8" shape-rendering="auto" solid-color="#000000" solid-opacity="1"/><path id="path4140" fill="none" stroke="#fff" stroke-linejoin="round" stroke-width="64" d="m 189,215 -56,0 0,-16 c -3,-26 -34,-20 -35,0 l 0,223 c 4.3,25.9 34.9,18.6 35,-0.4 l 0,-171.6 49,0 -31,161 c -7.1,39.5 45.7,38 48.7,9.5 L 252,153 c 2,-35.8 -43.9,-37 -49.3,-9.5 z" color="#000" color-interpolation="sRGB" color-interpolation-filters="linearRGB" color-rendering="auto" filter-blend-mode="normal" filter-gaussianBlur-deviation="0" image-rendering="auto" isolation="auto" mix-blend-mode="normal" opacity=".8" shape-rendering="auto" solid-color="#000000" solid-opacity="1"/><path id="path4136" fill="#666" d="m 380,421 c 10.8,34.4 53.8,16 49,-10 l -31,-161 49,0 0,172 c 0.7,28 36.7,19.7 34.8,-0.4 L 482,199 c -2,-25.7 -34.9,-19.4 -35,-0.4 l 0,16.4 -56,0 -13,-71 c -14,-35 -55.9,-17.8 -49,9 z"/><path id="line6215" fill="#666" d="m 189,215 -56,0 0,-16 c -3,-26 -34,-20 -35,0 l 0,223 c 4.3,25.9 34.9,18.6 35,-0.4 l 0,-171.6 49,0 -31,161 c -7.1,39.5 45.7,38 48.7,9.5 L 252,153 c 2,-35.8 -43.9,-37 -49.3,-9.5 z"/></svg>