<svg xmlns="http://www.w3.org/2000/svg" width="580" height="580" version="1.0"><metadata id="metadata10"/><path id="path4140" fill="none" stroke="#fff" stroke-linejoin="round" stroke-width="64" d="m 121.8,138.8 c -2.9,2.9 -4.6,7.1 -4.5,11.2 l 0,22.6 c -7.79341,-0.39187 -16.66305,0.75984 -21.8,5.6 -3.8,3.6 -6,8.8 -6,14 0,5.2 2.2,10.3 6,14 7.08798,5.84684 13.34906,5.6 21.8,5.6 l 0,59 c -7.79341,-0.39187 -16.66305,0.75984 -21.8,5.6 -3.8,3.6 -6,8.8 -6,14 0,5.2 2.2,10.3 6,14 7.08798,5.84684 13.34906,5.6 21.8,5.6 l 0,67.4 32,0 0,-67.4 75,0 c 0,-7.86667 0,-15.73333 0,-23.6 l 140,0 0,23.6 69,0 0,67.4 32,0 0,-67.4 c 7.04399,0.33687 14.89745,-1.35759 19.4,-5.6 3.8,-3.6 5.9,-8.8 5.9,-14 0,-5.2 -2.2,-10.3 -5.9,-14 -6.43243,-5.21599 -11.9333,-5.6 -19.4,-5.6 l 0,-59 c 7.04399,0.33687 14.89745,-1.35759 19.4,-5.6 3.8,-3.6 5.9,-8.8 5.9,-14 0,-5.2 -2.2,-10.3 -5.9,-14 -6.43243,-5.21599 -11.9333,-5.6 -19.4,-5.6 l 0,-22.6 c 0.1,-4.2 -1.7,-8.4 -4.7,-11.3 -3,-3 -7.3,-4.7 -11.6,-4.6 -4.2,0.1 -8.3,1.8 -11.2,4.8 -2.9,2.9 -4.6,7.1 -4.5,11.2 l 0,22.6 -285,0 0,-22.6 c 0.1,-4.2 -1.7,-8.4 -4.7,-11.3 -3,-3 -7.3,-4.7 -11.1,-4.7 -3.7,0 -7.8,1.7 -10.7,4.7 z m 311.5,73.4 0,59 -285,0 0,-59 z" color="#000" color-interpolation="sRGB" color-interpolation-filters="linearRGB" color-rendering="auto" filter-blend-mode="normal" filter-gaussianBlur-deviation="0" image-rendering="auto" isolation="auto" mix-blend-mode="normal" opacity=".8" shape-rendering="auto" solid-color="#000000" solid-opacity="1"/><path id="path4142" fill="none" stroke="#fff" stroke-linejoin="round" stroke-width="64" d="m 247,354 95,0 0,-50 -95,0 z" color="#000" color-interpolation="sRGB" color-interpolation-filters="linearRGB" color-rendering="auto" filter-blend-mode="normal" filter-gaussianBlur-deviation="0" image-rendering="auto" isolation="auto" mix-blend-mode="normal" opacity=".8" shape-rendering="auto" solid-color="#000000" solid-opacity="1" white-space="normal"/><path id="path4144" fill="none" stroke="#fff" stroke-linejoin="round" stroke-width="64" d="m 215,418 c 54,0 108,0 162,0 l 0,-50 c -54,0 -108,0 -162,0 z" color="#000" color-interpolation="sRGB" color-interpolation-filters="linearRGB" color-rendering="auto" filter-blend-mode="normal" filter-gaussianBlur-deviation="0" image-rendering="auto" isolation="auto" mix-blend-mode="normal" opacity=".8" shape-rendering="auto" solid-color="#000000" solid-opacity="1" white-space="normal"/><path id="path2900" fill="#666" d="m 121.8,138.8 c -2.9,2.9 -4.6,7.1 -4.5,11.2 l 0,22.6 c -7.79341,-0.39187 -16.66305,0.75984 -21.8,5.6 -3.8,3.6 -6,8.8 -6,14 0,5.2 2.2,10.3 6,14 7.08798,5.84684 13.34906,5.6 21.8,5.6 l 0,59 c -7.79341,-0.39187 -16.66305,0.75984 -21.8,5.6 -3.8,3.6 -6,8.8 -6,14 0,5.2 2.2,10.3 6,14 7.08798,5.84684 13.34906,5.6 21.8,5.6 l 0,67.4 32,0 0,-67.4 75,0 c 0,-7.86667 0,-15.73333 0,-23.6 l 140,0 0,23.6 69,0 0,67.4 32,0 0,-67.4 c 7.04399,0.33687 14.89745,-1.35759 19.4,-5.6 3.8,-3.6 5.9,-8.8 5.9,-14 0,-5.2 -2.2,-10.3 -5.9,-14 -6.43243,-5.21599 -11.9333,-5.6 -19.4,-5.6 l 0,-59 c 7.04399,0.33687 14.89745,-1.35759 19.4,-5.6 3.8,-3.6 5.9,-8.8 5.9,-14 0,-5.2 -2.2,-10.3 -5.9,-14 -6.43243,-5.21599 -11.9333,-5.6 -19.4,-5.6 l 0,-22.6 c 0.1,-4.2 -1.7,-8.4 -4.7,-11.3 -3,-3 -7.3,-4.7 -11.6,-4.6 -4.2,0.1 -8.3,1.8 -11.2,4.8 -2.9,2.9 -4.6,7.1 -4.5,11.2 l 0,22.6 -285,0 0,-22.6 c 0.1,-4.2 -1.7,-8.4 -4.7,-11.3 -3,-3 -7.3,-4.7 -11.1,-4.7 -3.7,0 -7.8,1.7 -10.7,4.7 z m 311.5,73.4 0,59 -285,0 0,-59 z" color="#000" opacity=".8"/><path id="path4138" fill="#666" d="m 247,354 95,0 0,-50 -95,0 z" color="#000" color-interpolation="sRGB" color-interpolation-filters="linearRGB" color-rendering="auto" image-rendering="auto" isolation="auto" mix-blend-mode="normal" shape-rendering="auto" solid-color="#000000" solid-opacity="1" white-space="normal"/><path id="path4403" fill="#666" d="m 215,418 c 54,0 108,0 162,0 l 0,-50 c -54,0 -108,0 -162,0 z" color="#000" color-interpolation="sRGB" color-interpolation-filters="linearRGB" color-rendering="auto" image-rendering="auto" isolation="auto" mix-blend-mode="normal" shape-rendering="auto" solid-color="#000000" solid-opacity="1" white-space="normal"/></svg>