<svg xmlns="http://www.w3.org/2000/svg" width="580" height="580" version="1.0"><metadata id="metadata2975"/><defs id="defs4"><symbol id="symbol-university" viewBox="244.5 110 489 219.9"><path id="path4460" d="M79,43l57,119c0,0,21-96,104-96s124,106,124,106l43-133l82-17L0,17L79,43z"/><path id="path4462" fill="none" stroke="#000" stroke-width="20" d="M94,176l-21,39"/><path id="path4464" d="M300,19c0,10.5-22.6,19-50.5,19S199,29.5,199,19s22.6-19,50.5-19S300,8.5,300,19z"/><path id="path4466" stroke="#000" stroke-width="20" d="M112,216l-16-38L64,88c0,0-9-8-4-35s16-24,16-24" ill="none"/></symbol></defs><g id="g1327"><path id="path1329" fill="#734A08" stroke="#eee" stroke-width="3.408" d="M 66.275,1.768 C 24.94,1.768 1.704,23.139 1.704,66.804 L 1.704,516.927 C 1.704,557.771 22.599,579.156 63.896,579.156 L 515.92,579.156 C 557.227,579.156 578.149,558.841 578.149,516.927 L 578.149,66.804 C 578.149,24.203 557.227,1.768 514.628,1.768 C 514.624,1.768 66.133,1.625 66.275,1.768 z"/></g><g id="g4670" transform="translate(-4,0)"><path id="path4629" fill="#fff" stroke="#fff" stroke-linecap="round" stroke-linejoin="round" stroke-width="16" d="M 411.21693,457.24867 267.60639,382.68184 124.76501,458.71169 151.30418,299.08753 34.85508,186.73183 194.86773,162.6455 265.73961,17.175999 338.09369,161.91399 498.34402,184.3646 383.04866,297.90393 411.21693,457.24867 z" opacity=".75" transform="translate(30.687831,46.031746)"/><path id="path4631" fill="none" stroke="#fff" stroke-linecap="round" stroke-linejoin="round" stroke-width="20" d="M 411.21693,457.24867 267.60639,382.68184 124.76501,458.71169 151.30418,299.08753 34.85508,186.73183 194.86773,162.6455 265.73961,17.175999 338.09369,161.91399 498.34402,184.3646 383.04866,297.90393 411.21693,457.24867 z" transform="translate(30.687831,46.031746)"/></g></svg>