<svg xmlns="http://www.w3.org/2000/svg" width="580" height="580" version="1.0"><metadata id="metadata2975"/><g id="g1327"><path id="path1329" fill="#734A08" stroke="#eee" stroke-width="3.408" d="M 66.275,1.768 C 24.94,1.768 1.704,23.139 1.704,66.804 L 1.704,516.927 C 1.704,557.771 22.599,579.156 63.896,579.156 L 515.92,579.156 C 557.227,579.156 578.149,558.841 578.149,516.927 L 578.149,66.804 C 578.149,24.203 557.227,1.768 514.628,1.768 C 514.624,1.768 66.133,1.625 66.275,1.768 z"/></g><path id="path837" fill="#fff" fill-rule="evenodd" stroke-linecap="round" stroke-linejoin="round" stroke-opacity=".581" stroke-width="22.615" d="M 206.82827,474.90828 L 95.95377,474.90828 L 150.87037,534.74412 L 206.82827,474.90828 z"/><rect id="rect4101" width="413.89" height="20.555" x="84.47" y="113.21" fill="#fff" stroke="#fff" stroke-linecap="square" stroke-width="18.411" rx="0"/><rect id="rect4103" width="413.89" height="20.555" x="84.47" y="237.21" fill="#fff" stroke="#fff" stroke-linecap="square" stroke-width="18.411" rx="0"/><rect id="rect4105" width="413.89" height="20.555" x="84.47" y="361.21" fill="#fff" stroke="#fff" stroke-linecap="square" stroke-width="18.411" rx="0"/><rect id="rect4107" width="429.75" height="20.532" x="56.55" y="-161.41" fill="#fff" stroke="#fff" stroke-linecap="square" stroke-width="18.75" rx="0" transform="matrix(0,1,-1,0,0,0)"/><rect id="rect4109" width="429.75" height="20.532" x="55.6" y="-300.66" fill="#fff" stroke="#fff" stroke-linecap="square" stroke-width="18.75" rx="0" transform="matrix(0,1,-1,0,0,0)"/><rect id="rect4111" width="429.75" height="20.532" x="54.48" y="-439.28" fill="#fff" stroke="#fff" stroke-linecap="square" stroke-width="18.75" rx="0" transform="matrix(0,1,-1,0,0,0)"/><path id="path4117" fill="#fff" fill-rule="evenodd" stroke-linecap="round" stroke-linejoin="round" stroke-opacity=".581" stroke-width="22.615" d="M 346.5892,475.79366 L 235.7147,475.79366 L 290.6313,535.6295 L 346.5892,475.79366 z"/><path id="path4119" fill="#fff" fill-rule="evenodd" stroke-linecap="round" stroke-linejoin="round" stroke-opacity=".581" stroke-width="22.615" d="M 486.5892,475.79366 L 375.7147,475.79366 L 430.6313,535.6295 L 486.5892,475.79366 z"/></svg>