<svg xmlns="http://www.w3.org/2000/svg" width="580" height="580" version="1.0"><metadata id="metadata2975"/><path id="path4143" fill="none" stroke="#fff" stroke-linejoin="round" stroke-width="64" d="m289 37.7c-.8 0-1.7.2-2.4.6l-70 38.8c-.1.1-.2.1-.3.2-2.1 1.4-3.9 4.2-3.9 6.9 0 1.8.5 4 2.1 5.6 1.6 1.6 3.8 2.1 5.6 2.1l137 0c1.8 0 3.9-.3 5.7-1.8 1.8-1.5 2.6-4 2.6-5.9l0 0c0-2.8-1.8-5.5-3.9-6.9-.1-.1-.2-.1-.3-.2L291 38c-.7-.4-1.5-.6-2.3-.6M218 167c-2.9 0-6 .8-8.2 3-2.2 2.2-3 5.3-3 8.2 0 2.9.8 5.9 3 8.2 2.2 2.2 5.3 3 8.2 3l6.4 0-46 348c-.4 2.9 1.9 5.5 4.8 5.5l213 0c2.9 0 5.2-2.6 4.8-5.5l-45.6-348 6.5 0c2.9 0 5.9-.8 8.1-3 2.2-2.2 3-5.2 3-8.2 0-2.9-.8-6-3-8.2-2.2-2.2-5.3-3-8.1-3z" color="#000" color-interpolation="sRGB" color-interpolation-filters="linearRGB" color-rendering="auto" filter-blend-mode="normal" filter-gaussianBlur-deviation="0" image-rendering="auto" isolation="auto" mix-blend-mode="normal" opacity=".8" shape-rendering="auto" solid-color="#000000" solid-opacity="1" white-space="normal"/><path id="path4145" fill="none" stroke="#fff" stroke-linejoin="round" stroke-width="64" d="m40.8 82c-2.8-.1-5 2.2-5 4.9l.6 83c0 2.9 2.6 5.2 5.5 4.8l197-24.6c2.4-.3 4.3-2.4 4.3-4.8l0-33.7c0-2.5-1.8-4.5-4.3-4.8L41 82c-.2 0-.3 0-.5 0m498 0c-.2 0-.3 0-.5 0L342 107c-2.4.3-4.3 2.4-4.3 4.8l0 33c0 2.4 1.8 4.5 4.3 4.8l197 25c2.9.4 5.5-1.9 5.5-4.8l0-83c0-2.7-2.3-4.9-5-4.9" color="#000" color-interpolation="sRGB" color-interpolation-filters="linearRGB" color-rendering="auto" filter-blend-mode="normal" filter-gaussianBlur-deviation="0" image-rendering="auto" isolation="auto" mix-blend-mode="normal" opacity=".8" shape-rendering="auto" solid-color="#000000" solid-opacity="1" white-space="normal"/><path id="path3186-1" fill="#fff" stroke="#fff" stroke-linejoin="round" stroke-width="10" d="M238 112L40.7 86 41 170 238 145l0-33.7zm104 33l197 25 0-83-197 25 0 33z"/><path id="flowRoot3192" fill="#0092da" d="m289 37.7c-.8 0-1.7.2-2.4.6l-70 38.8c-.1.1-.2.1-.3.2-2.1 1.4-3.9 4.2-3.9 6.9 0 1.8.5 4 2.1 5.6 1.6 1.6 3.8 2.1 5.6 2.1l137 0c1.8 0 3.9-.3 5.7-1.8 1.8-1.5 2.6-4 2.6-5.9l0 0c0-2.8-1.8-5.5-3.9-6.9-.1-.1-.2-.1-.3-.2L291 38c-.7-.4-1.5-.6-2.3-.6M218 167c-2.9 0-6 .8-8.2 3-2.2 2.2-3 5.3-3 8.2 0 2.9.8 5.9 3 8.2 2.2 2.2 5.3 3 8.2 3l6.4 0-46 348c-.4 2.9 1.9 5.5 4.8 5.5l213 0c2.9 0 5.2-2.6 4.8-5.5l-45.6-348 6.5 0c2.9 0 5.9-.8 8.1-3 2.2-2.2 3-5.2 3-8.2 0-2.9-.8-6-3-8.2-2.2-2.2-5.3-3-8.1-3z" color="#000" color-interpolation="sRGB" color-interpolation-filters="linearRGB" color-rendering="auto" image-rendering="auto" isolation="auto" mix-blend-mode="normal" shape-rendering="auto" solid-color="#000000" solid-opacity="1" white-space="normal"/><path id="path3186" fill="#0092da" d="m40.8 82c-2.8-.1-5 2.2-5 4.9l.6 83c0 2.9 2.6 5.2 5.5 4.8l197-24.6c2.4-.3 4.3-2.4 4.3-4.8l0-33.7c0-2.5-1.8-4.5-4.3-4.8L41 82c-.2 0-.3 0-.5 0m498 0c-.2 0-.3 0-.5 0L342 107c-2.4.3-4.3 2.4-4.3 4.8l0 33c0 2.4 1.8 4.5 4.3 4.8l197 25c2.9.4 5.5-1.9 5.5-4.8l0-83c0-2.7-2.3-4.9-5-4.9" color="#000" color-interpolation="sRGB" color-interpolation-filters="linearRGB" color-rendering="auto" image-rendering="auto" isolation="auto" mix-blend-mode="normal" opacity=".5" shape-rendering="auto" solid-color="#000000" solid-opacity="1" white-space="normal"/><ellipse id="path3188" cx="290" cy="129" fill="#0092da" stroke="#0092da" stroke-linecap="round" stroke-linejoin="round" stroke-width="8.7" rx="31" ry="31"/><path id="path4149" fill="#fff" stroke="#fff" stroke-linejoin="round" stroke-width="10" d="M238 112L40.7 86 41 170 238 145l0-33.7zm104 33l197 25 0-83-197 25 0 33z"/><path id="path4151" fill="#0092da" d="m289 37.7c-.8 0-1.7.2-2.4.6l-70 38.8c-.1.1-.2.1-.3.2-2.1 1.4-3.9 4.2-3.9 6.9 0 1.8.5 4 2.1 5.6 1.6 1.6 3.8 2.1 5.6 2.1l137 0c1.8 0 3.9-.3 5.7-1.8 1.8-1.5 2.6-4 2.6-5.9l0 0c0-2.8-1.8-5.5-3.9-6.9-.1-.1-.2-.1-.3-.2L291 38c-.7-.4-1.5-.6-2.3-.6M218 167c-2.9 0-6 .8-8.2 3-2.2 2.2-3 5.3-3 8.2 0 2.9.8 5.9 3 8.2 2.2 2.2 5.3 3 8.2 3l6.4 0-46 348c-.4 2.9 1.9 5.5 4.8 5.5l213 0c2.9 0 5.2-2.6 4.8-5.5l-45.6-348 6.5 0c2.9 0 5.9-.8 8.1-3 2.2-2.2 3-5.2 3-8.2 0-2.9-.8-6-3-8.2-2.2-2.2-5.3-3-8.1-3z" color="#000" color-interpolation="sRGB" color-interpolation-filters="linearRGB" color-rendering="auto" image-rendering="auto" isolation="auto" mix-blend-mode="normal" shape-rendering="auto" solid-color="#000000" solid-opacity="1" white-space="normal"/><path id="path4153" fill="#0092da" d="m40.8 82c-2.8-.1-5 2.2-5 4.9l.6 83c0 2.9 2.6 5.2 5.5 4.8l197-24.6c2.4-.3 4.3-2.4 4.3-4.8l0-33.7c0-2.5-1.8-4.5-4.3-4.8L41 82c-.2 0-.3 0-.5 0m498 0c-.2 0-.3 0-.5 0L342 107c-2.4.3-4.3 2.4-4.3 4.8l0 33c0 2.4 1.8 4.5 4.3 4.8l197 25c2.9.4 5.5-1.9 5.5-4.8l0-83c0-2.7-2.3-4.9-5-4.9" color="#000" color-interpolation="sRGB" color-interpolation-filters="linearRGB" color-rendering="auto" image-rendering="auto" isolation="auto" mix-blend-mode="normal" opacity=".5" shape-rendering="auto" solid-color="#000000" solid-opacity="1" white-space="normal"/><path id="path4155" fill="#0092da" d="m290 93c-19.5 0-35.5 15.9-35.5 35.5 0 19.5 15.9 35.5 35.5 35.5 19.5 0 35.5-15.9 35.5-35.5 0-19.5-15.9-35.5-35.5-35.5m0 8.5c15 0 27 12 27 27 0 15-12 27-27 27-15 0-27-12-27-27 0-15 12-27 27-27" color="#000" color-interpolation="sRGB" color-interpolation-filters="linearRGB" color-rendering="auto" image-rendering="auto" isolation="auto" mix-blend-mode="normal" shape-rendering="auto" solid-color="#000000" solid-opacity="1" white-space="normal"/></svg>