<svg xmlns="http://www.w3.org/2000/svg" width="580" height="580" version="1.0"><metadata id="metadata2975"/><path id="path4152" fill="none" fill-rule="evenodd" stroke="#fff" stroke-linejoin="round" stroke-width="64" d="m 219.6,162.8 c -1.1,18 0.1,36 -0.3,54 0.2,67 -0.4,135 0.3,202 2.9,32 30.5,60 62.7,62.9 30.5,3.4 62,-14.9 72.9,-43.7 5.8,-14 5.7,-29.4 5.2,-44 C 360.2,317 360.8,239 360,162 357.1,130.1 330.27019,99.778256 292.16522,98.118631 254.06025,96.459006 221.7,127.8 219.6,162.8 Z" color="#000" color-interpolation="sRGB" color-interpolation-filters="linearRGB" color-rendering="auto" filter-blend-mode="normal" filter-gaussianBlur-deviation="0" image-rendering="auto" isolation="auto" mix-blend-mode="normal" opacity=".8" shape-rendering="auto" solid-color="#000000" solid-opacity="1"/><path id="path4150" fill="#0092da" d="m 219.6,162.8 c -1.1,18 0.1,36 -0.3,54 0.2,67 -0.4,135 0.3,202 2.9,32 30.5,60 62.7,62.9 30.5,3.4 62,-14.9 72.9,-43.7 5.8,-14 5.7,-29.4 5.2,-44 C 360.2,317 360.8,239 360,162 357.1,130.1 330.27019,99.778256 292.16522,98.118631 254.06025,96.459006 221.7,127.8 219.6,162.8 Z"/><path id="path4148" fill="#fff" d="m 344.7,170.2 c 0,29.9 -24.3,54 -54,54 -29.9,0 -54,-24 -54,-54 0,-29.9 24,-54 54,-54 29.9,0 54,24.3 54,54 z" opacity=".4"/><path id="path4146" fill="#fff" d="m 344.7,290.2 c 0,29.9 -24.3,54 -54,54 -29.9,0 -54,-24 -54,-54 0,-29.9 24,-54 54,-54 29.9,0 54,24.3 54,54 z" opacity=".8"/><path id="path4782" fill="#fff" d="m 344.7,410.2 c 0,29.9 -24.3,54 -54,54 -29.9,0 -54,-24 -54,-54 0,-29.9 24,-54 54,-54 29.9,0 54,24.3 54,54 z" opacity=".7"/></svg>