<svg xmlns="http://www.w3.org/2000/svg" width="580" height="580" version="1.0"><metadata id="metadata2975"/><defs id="defs4"><symbol id="symbol-university" viewBox="244.5 110 489 219.9"><path id="path4460" d="M79,43l57,119c0,0,21-96,104-96s124,106,124,106l43-133l82-17L0,17L79,43z"/><path id="path4462" fill="none" stroke="#000" stroke-width="20" d="M94,176l-21,39"/><path id="path4464" d="M300,19c0,10.5-22.6,19-50.5,19S199,29.5,199,19s22.6-19,50.5-19S300,8.5,300,19z"/><path id="path4466" stroke="#000" stroke-width="20" d="M112,216l-16-38L64,88c0,0-9-8-4-35s16-24,16-24" ill="none"/></symbol></defs><g id="g1327"><path id="path1329" fill="#AC39AC" stroke="#eee" stroke-width="3.408" d="M 66.275,1.768 C 24.94,1.768 1.704,23.139 1.704,66.804 L 1.704,516.927 C 1.704,557.771 22.599,579.156 63.896,579.156 L 515.92,579.156 C 557.227,579.156 578.149,558.841 578.149,516.927 L 578.149,66.804 C 578.149,24.203 557.227,1.768 514.628,1.768 C 514.624,1.768 66.133,1.625 66.275,1.768 z"/></g><path id="rect7039" fill="none" stroke="#fff" stroke-linecap="round" stroke-linejoin="round" stroke-width="20.955" d="M 82.4375 65.40625 L 82.4375 520.375 L 494.21875 520.375 L 494.21875 65.40625 L 82.4375 65.40625 z M 286 198.09375 C 341.22173 198.09375 386.03125 242.93453 386.03125 298.15625 C 386.03124 353.37798 341.22172 398.1875 286 398.1875 C 230.77828 398.1875 185.9375 353.37797 185.9375 298.15625 C 185.9375 242.93453 230.77828 198.09375 286 198.09375 z"/><g id="g7055" transform="matrix(1.0477726,0,0,1.0477726,-9.5831747,-13.991926)"><path id="path7043" fill="none" stroke="#fff" stroke-linecap="round" stroke-linejoin="round" stroke-width="20" d="m 373.23267,276.20596 c 0,52.73111 -42.74701,95.47812 -95.47812,95.47812 -52.73111,0 -95.47812,-42.74701 -95.47812,-95.47812 0,-52.73111 42.74701,-95.47812 95.47812,-95.47812 52.73111,0 95.47812,42.74701 95.47812,95.47812 z" transform="translate(4.3399146,21.699573)"/><path id="path7045" fill="none" fill-rule="evenodd" stroke="#fff" stroke-linecap="round" stroke-width="18.665" d="M 190.78628,250.19634 L 190.78628,349.95467"/><path id="path7047" fill="none" fill-rule="evenodd" stroke="#fff" stroke-linecap="round" stroke-linejoin="round" stroke-width="39.801" d="M 370.09478,300.0755 L 350.20059,300.0755"/></g><path id="path7049" fill="none" stroke="#fff" stroke-linecap="round" stroke-linejoin="round" stroke-width="25" d="M 351.53308,124.30897 A 10.849787,10.849787 0 1 1 329.8335,124.30897 A 10.849787,10.849787 0 1 1 351.53308,124.30897 z" transform="matrix(0.853028,0,0,0.853028,92.865028,12.025478)"/><path id="path7051" fill="none" stroke="#fff" stroke-linecap="round" stroke-linejoin="round" stroke-width="25" d="M 351.53308,124.30897 A 10.849787,10.849787 0 1 1 329.8335,124.30897 A 10.849787,10.849787 0 1 1 351.53308,124.30897 z" transform="matrix(0.853028,0,0,0.853028,150.14226,12.025478)"/><path id="path7053" fill="none" stroke="#fff" stroke-linecap="round" stroke-linejoin="round" stroke-width="25" d="M 351.53308,124.30897 A 10.849787,10.849787 0 1 1 329.8335,124.30897 A 10.849787,10.849787 0 1 1 351.53308,124.30897 z" transform="matrix(0.853028,0,0,0.853028,35.587804,12.025478)"/><path id="path7099" fill="#fff" stroke="#fff" stroke-linecap="round" stroke-linejoin="round" stroke-width="20.955" d="M 82.4375,65.40625 L 82.4375,520.375 L 494.21875,520.375 L 494.21875,65.40625 L 82.4375,65.40625 z M 286,198.09375 C 341.22173,198.09375 386.03125,242.93453 386.03125,298.15625 C 386.03124,353.37798 341.22172,398.1875 286,398.1875 C 230.77828,398.1875 185.9375,353.37797 185.9375,298.15625 C 185.9375,242.93453 230.77828,198.09375 286,198.09375 z" opacity=".1"/><path id="path7103" fill="#fff" stroke="#fff" stroke-linecap="round" stroke-linejoin="round" stroke-width="20" d="M 373.23267,276.20596 A 95.478119,95.478119 0 1 1 182.27643,276.20596 A 95.478119,95.478119 0 1 1 373.23267,276.20596 z" opacity=".2" transform="matrix(1.0477726,0,0,1.0477726,-5.0359311,8.744292)"/></svg>