<svg xmlns="http://www.w3.org/2000/svg" width="580" height="580" version="1.0"><metadata id="metadata2975"/><defs id="defs4"><symbol id="symbol-university" viewBox="244.5 110 489 219.9"><path id="path4460" d="M79,43l57,119c0,0,21-96,104-96s124,106,124,106l43-133l82-17L0,17L79,43z"/><path id="path4462" fill="none" stroke="#000" stroke-width="20" d="M94,176l-21,39"/><path id="path4464" d="M300,19c0,10.5-22.6,19-50.5,19S199,29.5,199,19s22.6-19,50.5-19S300,8.5,300,19z"/><path id="path4466" stroke="#000" stroke-width="20" d="M112,216l-16-38L64,88c0,0-9-8-4-35s16-24,16-24" ill="none"/></symbol><symbol id="symbol9807" viewBox="244.5 110 489 219.9"><path id="path9809" d="M79,43l57,119c0,0,21-96,104-96s124,106,124,106l43-133l82-17L0,17L79,43z"/><path id="path9811" fill="none" stroke="#000" stroke-width="20" d="M94,176l-21,39"/><path id="path9813" d="M300,19c0,10.5-22.6,19-50.5,19S199,29.5,199,19s22.6-19,50.5-19S300,8.5,300,19z"/><path id="path9815" stroke="#000" stroke-width="20" d="M112,216l-16-38L64,88c0,0-9-8-4-35s16-24,16-24" ill="none"/></symbol><linearGradient id="linearGradient2936"><stop id="stop2938" stop-color="#8acf6b"/><stop id="stop2940" offset="1" stop-color="#368912"/></linearGradient><linearGradient id="linearGradient2952"><stop id="stop2954" stop-color="#c0d50d"/><stop id="stop2956" offset="1" stop-color="#eef2cd"/></linearGradient><marker id="RazorWire" orient="auto">style=&quot;overflow:visible&quot;&gt;<path id="path4286" fill="gray" fill-rule="evenodd" stroke="#000" stroke-width=".125" d="M 0.022727273,-0.74009011 L 0.022727273,0.69740989 L -7.7585227,3.0099099 L 10.678977,3.0099099 L 3.4914773,0.69740989 L 3.4914773,-0.74009011 L 10.741477,-2.8963401 L -7.7272727,-2.8963401 L 0.022727273,-0.74009011 z" transform="scale(0.8,0.8)"/></marker><marker id="DiamondS" orient="auto" refX="0" refY="0"><path id="path4202" fill-rule="evenodd" stroke="#000" stroke-width="1.25" d="M 0,-7.0710768 L -7.0710894,0 L 0,7.0710589 L 7.0710462,0 L 0,-7.0710768 z" transform="scale(0.2)"/></marker><marker id="Arrow2Sstart" orient="auto" refX="0" refY="0"><path id="path4146" fill-rule="evenodd" stroke-linejoin="round" stroke-width=".625" d="M 8.7185878,4.0337352 L -2.2072895,0.016013256 L 8.7185884,-4.0017078 C 6.9730900,-1.6296469 6.9831476,1.6157441 8.7185878,4.0337352 z" transform="scale(0.3) translate(-2.3,0)"/></marker><marker id="StopS" orient="auto" refX="0" refY="0"><path id="path4229" fill="none" fill-opacity=".75" fill-rule="evenodd" stroke="#000" stroke-width="1.25" d="M 0.0,5.65 L 0.0,-5.65" transform="scale(0.2)"/></marker><marker id="InfiniteLineStart" orient="auto"><g id="g4298" transform="translate(-13,0)"><circle id="circle4300" cx="3" r=".8"/><circle id="circle4302" cx="6.5" r=".8"/><circle id="circle4304" cx="10" r=".8"/></g></marker><marker id="CurveIn" orient="auto" refX="0" refY="0"><path id="path4238" fill="none" fill-rule="evenodd" stroke="#000" stroke-width="1.25" d="M 4.6254930,-5.0456926 C 1.8654930,-5.0456926 -0.37450702,-2.8056926 -0.37450702,-0.045692580 C -0.37450702,2.7143074 1.8654930,4.9543074 4.6254930,4.9543074" transform="scale(0.6)"/></marker><marker id="TriangleOutS" orient="auto" refX="0" refY="0"><path id="path4220" fill-rule="evenodd" stroke="#000" stroke-width="1.25" d="M 5.77,0.0 L -2.88,5.0 L -2.88,-5.0 L 5.77,0.0 z" transform="scale(0.2)"/></marker><marker id="Arrow2Send" orient="auto" refX="0" refY="0"><path id="path4149" fill-rule="evenodd" stroke-linejoin="round" stroke-width=".625" d="M 8.7185878,4.0337352 L -2.2072895,0.016013256 L 8.7185884,-4.0017078 C 6.9730900,-1.6296469 6.9831476,1.6157441 8.7185878,4.0337352 z" transform="scale(0.3) rotate(180) translate(-2.3,0)"/></marker><marker id="SemiCircleOut" orient="auto" refX="0" refY="0"><path id="path4235" fill-rule="evenodd" stroke="#000" stroke-width="1.25" d="M -2.5,-0.80913858 C -2.5,1.9508614 -4.7400000,4.1908614 -7.5,4.1908614 L -7.5,-5.8091386 C -4.7400000,-5.8091386 -2.5,-3.5691386 -2.5,-0.80913858 z" transform="scale(0.6) translate(7.125493,0.763446)"/></marker><marker id="Arrow1Send" orient="auto" refX="0" refY="0"><path id="path4131" fill-rule="evenodd" stroke="#000" stroke-width="1.25" d="M 0.0,0.0 L 5.0,-5.0 L -12.5,0.0 L 5.0,5.0 L 0.0,0.0 z" transform="scale(0.2) rotate(180) translate(6,0)"/></marker><marker id="Arrow1Sstart" orient="auto" refX="0" refY="0"><path id="path4128" fill-rule="evenodd" stroke="#000" stroke-width="1.25" d="M 0.0,0.0 L 5.0,-5.0 L -12.5,0.0 L 5.0,5.0 L 0.0,0.0 z" transform="scale(0.2) translate(6,0)"/></marker><marker id="Tail" orient="auto" refX="0" refY="0"><g id="g4152" transform="scale(-1.2)"><path id="path4154" fill="none" fill-rule="evenodd" stroke="#000" stroke-linecap="round" stroke-width=".8" d="M -3.8048674,-3.9585227 L 0.54352094,0"/><path id="path4156" fill="none" fill-rule="evenodd" stroke="#000" stroke-linecap="round" stroke-width=".8" d="M -1.2866832,-3.9585227 L 3.0617053,0"/><path id="path4158" fill="none" fill-rule="evenodd" stroke="#000" stroke-linecap="round" stroke-width=".8" d="M 1.3053582,-3.9585227 L 5.6537466,0"/><path id="path4160" fill="none" fill-rule="evenodd" stroke="#000" stroke-linecap="round" stroke-width=".8" d="M -3.8048674,4.1775838 L 0.54352094,0.21974226"/><path id="path4162" fill="none" fill-rule="evenodd" stroke="#000" stroke-linecap="round" stroke-width=".8" d="M -1.2866832,4.1775838 L 3.0617053,0.21974226"/><path id="path4164" fill="none" fill-rule="evenodd" stroke="#000" stroke-linecap="round" stroke-width=".8" d="M 1.3053582,4.1775838 L 5.6537466,0.21974226"/></g></marker><marker id="Arrow1Lend" orient="auto" refX="0" refY="0"><path id="path4119" fill-rule="evenodd" stroke="#000" stroke-width="1.25" d="M 0.0,0.0 L 5.0,-5.0 L -12.5,0.0 L 5.0,5.0 L 0.0,0.0 z" transform="scale(0.8) rotate(180) translate(12.5,0)"/></marker><marker id="TriangleOutL" orient="auto" refX="0" refY="0"><path id="path4214" fill-rule="evenodd" stroke="#000" stroke-width="1.25" d="M 5.77,0.0 L -2.88,5.0 L -2.88,-5.0 L 5.77,0.0 z" transform="scale(0.8)"/></marker><marker id="Arrow1Mend" orient="auto" refX="0" refY="0"><path id="path4125" fill-rule="evenodd" stroke="#000" stroke-width="1.25" d="M 0.0,0.0 L 5.0,-5.0 L -12.5,0.0 L 5.0,5.0 L 0.0,0.0 z" transform="scale(0.4) rotate(180) translate(10,0)"/></marker><marker id="Arrow2Lend" orient="auto" refX="0" refY="0"><path id="path4137" fill-rule="evenodd" stroke-linejoin="round" stroke-width=".625" d="M 8.7185878,4.0337352 L -2.2072895,0.016013256 L 8.7185884,-4.0017078 C 6.9730900,-1.6296469 6.9831476,1.6157441 8.7185878,4.0337352 z" transform="scale(1.1) rotate(180) translate(1,0)"/></marker><symbol id="symbol14628" viewBox="244.5 110 489 219.9"><path id="path14630" d="M79,43l57,119c0,0,21-96,104-96s124,106,124,106l43-133l82-17L0,17L79,43z"/><path id="path14632" fill="none" stroke="#000" stroke-width="20" d="M94,176l-21,39"/><path id="path14634" d="M300,19c0,10.5-22.6,19-50.5,19S199,29.5,199,19s22.6-19,50.5-19S300,8.5,300,19z"/><path id="path14636" stroke="#000" stroke-width="20" d="M112,216l-16-38L64,88c0,0-9-8-4-35s16-24,16-24" ill="none"/></symbol></defs><g id="g1327"><path id="path1329" fill="#AC39AC" stroke="#eee" stroke-width="3.408" d="M 66.275,1.768 C 24.94,1.768 1.704,23.139 1.704,66.804 L 1.704,516.927 C 1.704,557.771 22.599,579.156 63.896,579.156 L 515.92,579.156 C 557.227,579.156 578.149,558.841 578.149,516.927 L 578.149,66.804 C 578.149,24.203 557.227,1.768 514.628,1.768 C 514.624,1.768 66.133,1.625 66.275,1.768 z"/></g><g id="layer1" fill="#fff" transform="matrix(1.0432444,0.619486,-0.619486,1.0432444,-297.2856,-932.85729)"><path id="path2078" fill-rule="evenodd" d="M 922.96817,588.96089 C 946.99247,591.76623 975.34703,597.13709 988.03147,620.36924 C 997.29374,634.06426 1005.3566,648.75325 1016.9079,660.73541 C 1037.3821,671.09567 1057.7811,683.53724 1072.4703,701.439 C 1090.9052,729.00407 1085.3231,768.48774 1063.8949,792.69427 C 1039.9012,814.66172 1005.3664,825.63605 973.38546,817.50879 C 952.94438,813.42216 932.56253,801.39608 911.29472,808.11433 C 891.6213,813.63558 872.09715,822.33471 851.14581,820.00093 C 831.22928,819.32596 813.35918,809.5856 796.60522,799.79183 C 777.07116,787.253 764.86562,764.58047 766.18857,741.2839 C 766.2556,706.31123 792.54897,677.31749 822.15912,661.96822 C 834.79606,655.82652 848.06344,649.15519 854.07068,635.51619 C 862.66004,619.78221 870.19421,600.01897 889.27867,594.65308 C 900.04899,590.73408 911.54853,589.16325 922.96817,588.96089 z"/><path id="path2040" fill-rule="evenodd" d="M 706.83161,545.9715 C 711.96138,527.95693 726.50287,511.2929 745.8089,508.85466 C 759.61167,507.0744 773.89483,510.57922 786.04639,517.09671 C 808.20705,531.85522 821.10592,556.83794 828.39941,581.77621 C 832.0754,593.70138 834.57607,606.45147 831.54708,618.81597 C 828.74778,633.41804 818.15651,645.7904 804.52662,651.48273 C 786.82298,662.12551 763.34709,660.68622 746.4669,649.05269 C 736.42652,642.40278 727.52911,633.72326 722.12893,622.84352 C 709.33994,599.7804 700.71378,572.37656 706.83161,545.9715 z"/><path id="path2071" fill-rule="evenodd" d="M 421.73586,81.462526 C 421.73586,81.462526 451.20014,81.641097 467.45014,119.31967 C 467.45014,119.31967 478.66322,143.75684 474.77157,181.28396 C 474.77157,181.28396 474.16292,219.06362 451.68703,234.46844 C 451.68703,234.46844 421.12991,262.24764 386.02711,224.87199 C 386.02711,224.87199 361.53091,198.60803 356.73269,161.48492 C 356.73269,161.48492 351.42939,123.09912 375.16797,100.11815 C 375.16797,100.11815 395.30729,81.283954 421.73586,81.462526 z" transform="translate(452.857,333.791)"/><path id="path2073" fill-rule="evenodd" d="M 576.52455,89.717037 C 576.52455,89.717037 612.77455,100.43132 608.84598,141.85989 C 608.84598,141.85989 610.90433,175.13682 591.20635,205.4414 C 591.20635,205.4414 571.25584,242.81704 544.73933,246.85765 C 544.73933,246.85765 515.44491,255.94902 494.23171,210.99723 C 494.23171,210.99723 479.07942,159.98453 502.56547,125.63934 C 502.56547,125.63934 529.98659,74.692894 576.52455,89.717037 z" transform="translate(452.857,333.791)"/><path id="path2075" fill-rule="evenodd" d="M 1117.8,529.42866 C 1134.8128,534.62823 1146.8252,551.08408 1148.338,568.57699 C 1149.9795,584.29573 1146.2592,600.09622 1140.9677,614.80887 C 1132.358,636.32047 1116.8411,655.12585 1097.2096,667.44439 C 1082.3739,675.54186 1063.8758,672.1055 1050.2963,663.02725 C 1044.7413,660.36601 1041.3557,655.32422 1038.9633,649.83128 C 1029.921,631.83942 1028.652,609.93901 1036.8703,591.41216 C 1043.8172,573.96573 1052.3656,556.15963 1067.0174,543.87202 C 1078.1262,533.77562 1092.6446,525.52938 1108.1736,527.14685 C 1111.4642,527.48098 1114.7073,528.25777 1117.8,529.42866 z"/></g></svg>