<svg xmlns="http://www.w3.org/2000/svg" width="580" height="580" version="1.0"><metadata id="metadata2975"/><g id="g1327"><path id="path1329" fill="#AC39AC" stroke="#eee" stroke-width="3.408" d="M 66.275,1.768 C 24.94,1.768 1.704,23.139 1.704,66.804 L 1.704,516.927 C 1.704,557.771 22.599,579.156 63.896,579.156 L 515.92,579.156 C 557.227,579.156 578.149,558.841 578.149,516.927 L 578.149,66.804 C 578.149,24.203 557.227,1.768 514.628,1.768 C 514.624,1.768 66.133,1.625 66.275,1.768 z"/></g><path id="path2492" fill="none" fill-rule="evenodd" stroke="#fff" stroke-linecap="round" stroke-linejoin="round" stroke-width="28.17" d="M 538.75588,90.924252 L 489.34651,118.92063 L 426.02351,388.57001 L 426.02351,445.69918 L 137.1468,445.69918"/><path id="path3264" fill="none" fill-rule="evenodd" stroke="#fff" stroke-linecap="round" stroke-linejoin="round" stroke-width="28.17" d="M 479.06925,164.57688 L 56.196494,164.57688 L 105.86424,358.40271 L 425.39502,402.94461 L 479.06925,164.57688 z"/><path id="path3268" fill="none" fill-rule="evenodd" stroke="#fff" stroke-linecap="round" stroke-width="18.782" d="M 128.06871,165.73536 L 128.06871,343.20709"/><path id="path3280" fill="none" fill-rule="evenodd" stroke="#fff" stroke-linecap="round" stroke-width="18.782" d="M 86.424707,243.00115 L 445.19209,243.00115"/><path id="path3284" fill="none" stroke="#fff" stroke-linecap="round" stroke-linejoin="round" stroke-width="20" d="M -184.12699,498.68445 A 29.153439,29.153439 0 1 1 -184.12699,498.67892" transform="matrix(1.0862609,0,0,1.1358574,373.78132,-86.8033)"/><path id="path3316" fill="none" stroke="#fff" stroke-linecap="round" stroke-linejoin="round" stroke-width="20" d="M -184.12699,498.68445 A 29.153439,29.153439 0 1 1 -184.12699,498.67892" transform="matrix(1.0862609,0,0,1.1358574,618.76176,-84.803297)"/><path id="path3318" fill="none" fill-rule="evenodd" stroke="#fff" stroke-linecap="round" stroke-width="18.782" d="M 215.1525,165.73536 L 215.1525,363.25095"/><path id="path3320" fill="none" fill-rule="evenodd" stroke="#fff" stroke-linecap="round" stroke-width="18.782" d="M 306.2363,165.73536 L 306.2363,372.15933"/><path id="path3322" fill="none" fill-rule="evenodd" stroke="#fff" stroke-linecap="round" stroke-width="18.782" d="M 395.3201,165.73536 L 395.3201,385.5219"/><path id="path3324" fill="none" fill-rule="evenodd" stroke="#fff" stroke-linecap="round" stroke-width="18.782" d="M 104.24147,322.08495 L 427.37533,322.08495"/></svg>