<svg xmlns="http://www.w3.org/2000/svg" width="580" height="580" version="1.0"><metadata id="metadata2975"/><defs id="defs4"><symbol id="symbol-university" viewBox="244.5 110 489 219.9"><path id="path4460" d="M79,43l57,119c0,0,21-96,104-96s124,106,124,106l43-133l82-17L0,17L79,43z"/><path id="path4462" fill="none" stroke="#000" stroke-width="20" d="M94,176l-21,39"/><path id="path4464" d="M300,19c0,10.5-22.6,19-50.5,19S199,29.5,199,19s22.6-19,50.5-19S300,8.5,300,19z"/><path id="path4466" stroke="#000" stroke-width="20" d="M112,216l-16-38L64,88c0,0-9-8-4-35s16-24,16-24" ill="none"/></symbol></defs><g id="g1327"><path id="path1329" fill="#0092DA" stroke="#eee" stroke-width="3.408" d="M 66.275,1.768 C 24.94,1.768 1.704,23.139 1.704,66.804 L 1.704,516.927 C 1.704,557.771 22.599,579.156 63.896,579.156 L 515.92,579.156 C 557.227,579.156 578.149,558.841 578.149,516.927 L 578.149,66.804 C 578.149,24.203 557.227,1.768 514.628,1.768 C 514.624,1.768 66.133,1.625 66.275,1.768 z"/></g><g id="g2913" transform="matrix(0.77452064,0,0,0.77452064,65.539985,24.712453)"><path id="path2157" fill="#fff" fill-rule="evenodd" stroke="#fff" stroke-linecap="round" stroke-width="35.829" d="M 47.545774,72.59912 44.346778,322.12088"/><path id="path2159" fill="#fff" fill-rule="evenodd" stroke="#fff" stroke-width="35.829" d="m 50.744772,229.34997 479.849548,3.19899"/><path id="path2161" fill="#fff" fill-rule="evenodd" stroke="#fff" stroke-linecap="round" stroke-width="35.829" d="m 533.79332,312.52389 3.19899,-163.14885"/><rect id="rect2163" width="252.72" height="44.786" x="233.09" y="138.18" fill="#fff" stroke="#fff" stroke-width="41.2" rx="22.393"/><path id="path2167" fill="#fff" stroke="#fff" stroke-width="2.3" d="m 9.2857143,16.017857 c 0,0.739667 -0.6795678,1.339285 -1.5178572,1.339285 -0.8382894,0 -1.5178572,-0.599618 -1.5178572,-1.339285 0,-0.739667 0.6795678,-1.339286 1.5178572,-1.339286 0.8382894,0 1.5178572,0.599619 1.5178572,1.339286 z" transform="matrix(22.993274,0,0,23.073314,-16.698545,-291.11131)"/><rect id="rect2169" width="97.57" height="7.997" x="90.73" y="173.37" fill="#fff" stroke="#fff" stroke-width="35.829" rx="3.999"/></g><g id="g6173"><rect id="rect2911" width="519.82" height="184.56" x="30.866" y="340.71" fill="#fff" stroke="#fff" stroke-linecap="round" stroke-linejoin="round" stroke-width="10.973" opacity=".2"/><path id="path2921" fill="none" stroke="#fff" stroke-width="20" d="m 21.699573,336.96478 537.064437,0"/><path id="path3695" fill="none" stroke="#fff" stroke-width="20" d="m 21.699573,524.96478 537.064437,0"/><path id="path3697" fill="none" stroke="#fff" stroke-dasharray="38.934 38.934" stroke-width="19.467" d="m 37.173702,428.96478 508.821758,0"/></g></svg>