<svg xmlns="http://www.w3.org/2000/svg" width="580" height="580" version="1.0"><metadata id="metadata2975"/><defs id="defs4"><symbol id="symbol-university" viewBox="244.5 110 489 219.9"><path id="path4460" d="M79,43l57,119c0,0,21-96,104-96s124,106,124,106l43-133l82-17L0,17L79,43z"/><path id="path4462" fill="none" stroke="#000" stroke-width="20" d="M94,176l-21,39"/><path id="path4464" d="M300,19c0,10.5-22.6,19-50.5,19S199,29.5,199,19s22.6-19,50.5-19S300,8.5,300,19z"/><path id="path4466" stroke="#000" stroke-width="20" d="M112,216l-16-38L64,88c0,0-9-8-4-35s16-24,16-24" ill="none"/></symbol></defs><g id="g1327"><path id="path1329" fill="#0092DA" stroke="#eee" stroke-width="3.408" d="M 66.275,1.768 C 24.94,1.768 1.704,23.139 1.704,66.804 L 1.704,516.927 C 1.704,557.771 22.599,579.156 63.896,579.156 L 515.92,579.156 C 557.227,579.156 578.149,558.841 578.149,516.927 L 578.149,66.804 C 578.149,24.203 557.227,1.768 514.628,1.768 C 514.624,1.768 66.133,1.625 66.275,1.768 z"/></g><g id="layer5" stroke="#fff" transform="matrix(59.652201,0,0,59.652201,-72.304986,-50.562035)"><path id="path12890" fill="none" fill-rule="evenodd" stroke-linecap="round" stroke-width=".3" d="M 3.25,2.25 L 2.25,3.25"/><path id="path15803" fill="none" fill-rule="evenodd" stroke-linecap="round" stroke-width=".3" d="M 3.6,3.4 L 2.3679807,4.6320194"/><path id="path15805" fill="none" fill-rule="evenodd" stroke-linecap="round" stroke-width=".3" d="M 5.1320193,3.1179806 L 3.9,4.35"/><path id="path15807" fill="none" fill-rule="evenodd" stroke-linecap="round" stroke-width=".3" d="M 3.1,4.9 L 2.1331457,5.8668544"/><path id="path15809" fill="none" fill-rule="evenodd" stroke-linecap="round" stroke-width=".3" d="M 6.3820193,2.8679806 L 5.15,4.1"/><path id="path15811" fill="none" fill-rule="evenodd" stroke-linecap="round" stroke-width=".3" d="M 8.1320193,2.1179806 L 6.9,3.35"/><path id="path15813" fill="none" fill-rule="evenodd" stroke-linecap="round" stroke-width=".3" d="M 8.6320193,3.6179806 L 7.4,4.85"/><path id="path15815" fill="none" fill-rule="evenodd" stroke-linecap="round" stroke-width=".3" d="M 10.029592,3.5035534 L 9.1179807,4.3820194"/><path id="path15817" fill="none" fill-rule="evenodd" stroke-linecap="round" stroke-width=".3" d="M 10.029592,2.0035534 L 9.1179802,2.8820194"/><path id="path15819" fill="none" fill-rule="evenodd" stroke-linecap="round" stroke-width=".3" d="M 10.062738,4.7093592 L 9.1179803,5.6320194"/><path id="path15821" fill="none" fill-rule="evenodd" stroke-linecap="round" stroke-width=".3" d="M 8.5434563,4.9896893 L 8.1179807,5.3820194"/><path id="path15823" fill="none" fill-rule="evenodd" stroke-linecap="round" stroke-width=".3" d="M 7.2633009,4.0087961 L 6.65,4.6"/><path id="path15825" fill="none" fill-rule="evenodd" stroke-linecap="round" stroke-width=".3" d="M 4.841767,2.1361359 L 4.1179807,2.8820194"/></g><g id="layer2" fill="#fff" stroke="#fff" stroke-linecap="round" stroke-linejoin="round" stroke-width=".335" transform="matrix(59.652201,0,0,59.652201,-72.304986,-50.562035)"><path id="path7057" fill-rule="evenodd" stroke-width=".335" d="M 2.25,6.5 L 6,4.5 L 9.75,6.5 L 9.4989134,6.7556834 L 8.2452133,6.25 L 5.9986595,5.9796244 L 3.7469743,6.2460938 L 2.4998353,6.7500598 L 2.25,6.5 z"/><rect id="rect7059" width=".5" height="3.5" x="3.75" y="6" stroke-width=".335"/><rect id="rect7061" width=".5" height="3.5" x="7.75" y="6" stroke-width=".335" rx="0"/></g><path id="path10943" fill="#fff" fill-rule="evenodd" stroke="#fff" stroke-linecap="round" stroke-linejoin="round" stroke-width="10" d="M 346.16505,531.70599 C 329.84989,478.72847 241.94165,478.81245 225.71046,531.70599 C 225.71046,531.70599 346.16505,531.70599 346.16505,531.70599 z"/></svg>