<svg xmlns="http://www.w3.org/2000/svg" width="580" height="580" version="1.0"><metadata id="metadata2975"/><path id="path4149" fill="none" stroke="#fff" stroke-linecap="round" stroke-linejoin="round" stroke-width="64" d="m 208,369 c -5.4,0 -9.7,4.4 -9.7,9.8 l 0,164 c 0,5.4 4.4,9.8 9.7,9.8 l 164,0 c 5.4,0 9.7,-4.4 9.7,-9.8 l 0,-164 c 0,-5.4 -4.4,-9.8 -9.7,-9.8 z" color="#000" color-interpolation="sRGB" color-interpolation-filters="linearRGB" color-rendering="auto" filter-blend-mode="normal" filter-gaussianBlur-deviation="0" image-rendering="auto" isolation="auto" mix-blend-mode="normal" opacity=".8" shape-rendering="auto" solid-color="#000000" solid-opacity="1" white-space="normal"/><path id="path4151" fill="none" stroke="#fff" stroke-linecap="round" stroke-linejoin="round" stroke-width="64" d="m 250.7,198 -75,-0.5 0,-38 0,-36.4 75,-1.4 1.3,-83 76,-1.3 0,84 75.9,0 0,37.6 0,37.6 -75.9,0 0,150 c -24,-2.8 -52,4.5 -75.95,-1.65 z" color="#000" color-interpolation="sRGB" color-interpolation-filters="linearRGB" color-rendering="auto" filter-blend-mode="normal" filter-gaussianBlur-deviation="0" image-rendering="auto" isolation="auto" mix-blend-mode="normal" opacity=".8" shape-rendering="auto" solid-color="#000000" solid-opacity="1"/><path id="rect4154" d="m 208,369 c -5.4,0 -9.7,4.4 -9.7,9.8 l 0,164 c 0,5.4 4.4,9.8 9.7,9.8 l 164,0 c 5.4,0 9.7,-4.4 9.7,-9.8 l 0,-164 c 0,-5.4 -4.4,-9.8 -9.7,-9.8 z" color="#000" color-interpolation="sRGB" color-interpolation-filters="linearRGB" color-rendering="auto" image-rendering="auto" isolation="auto" mix-blend-mode="normal" shape-rendering="auto" solid-color="#000000" solid-opacity="1" white-space="normal"/><path id="rect3587" fill="#fff" d="m 218,389 144,0 0,145 -144,0 z" color="#000" color-interpolation="sRGB" color-interpolation-filters="linearRGB" color-rendering="auto" image-rendering="auto" isolation="auto" mix-blend-mode="normal" opacity=".8" shape-rendering="auto" solid-color="#000000" solid-opacity="1" white-space="normal"/><path id="path1873" d="m 250.7,198 -75,-0.5 0,-38 0,-36.4 75,-1.4 1.3,-83 76,-1.3 0,84 75.9,0 0,37.6 0,37.6 -75.9,0 0,150 c -24,-2.8 -52,4.5 -75.95,-1.65 z"/></svg>